<?xml version="1.0" standalone="no"?>
<!DOCTYPE svg PUBLIC "-//W3C//DTD SVG 1.1//EN" "http://www.w3.org/Graphics/SVG/1.1/DTD/svg11.dtd" >
<svg xmlns="http://www.w3.org/2000/svg">
<metadata>Generated by IcoMoon</metadata>
<defs>
<font id="Trellicons" horiz-adv-x="1024">
<font-face units-per-em="1024" ascent="960" descent="-64" />
<missing-glyph horiz-adv-x="1024" />
<glyph unicode="&#x20;" horiz-adv-x="0" d="" />
<glyph unicode="&#xe900;" glyph-name="uniE900" d="M171 747q-36 0-61-25t-25-61q0-35 25-60t61-25q35 0 60 25t25 60q0 36-25 61t-60 25v0zM171 405q-36 0-61-25t-25-60 25-60 61-25q35 0 60 25t25 60-25 60-60 25zM341 704q0 18 12.5 30.5t30.5 12.5h512q18 0 30.5-12.5t12.5-30.5-12.5-30.5-30.5-12.5h-512q-18 0-30.5 12.5t-12.5 30.5v0zM384 576q-18 0-30.5-12.5t-12.5-30.5q0-17 12.5-29.5t30.5-12.5h384q18 0 30.5 12.5t12.5 29.5q0 18-12.5 30.5t-30.5 12.5h-384zM341 363q0 17 12.5 29.5t30.5 12.5h512q18 0 30.5-12.5t12.5-29.5q0-18-12.5-30.5t-30.5-12.5h-512q-18 0-30.5 12.5t-12.5 30.5v0zM384 235q-18 0-30.5-12.5t-12.5-30.5 12.5-30.5 30.5-12.5h384q18 0 30.5 12.5t12.5 30.5-12.5 30.5-30.5 12.5h-384z" />
<glyph unicode="&#xe901;" glyph-name="uniE901" d="M512 832q-18 0-30.5-12.5t-12.5-30.5v-298h-298q-18 0-30.5-12.5t-12.5-30.5 12.5-30.5 30.5-12.5h298v-298q0-18 12.5-30.5t30.5-12.5 30.5 12.5 12.5 30.5v298h298q18 0 30.5 12.5t12.5 30.5-12.5 30.5-30.5 12.5h-298v298q0 18-12.5 30.5t-30.5 12.5v0z" />
<glyph unicode="&#xe902;" glyph-name="uniE902" d="M512 405q44 0 83 17t68 46 46 68q16 38 16 83 0 44-16 83-17 39-46 67.5t-68 45.5-83 17-83-17-68-45.5-46-67.5q-16-39-16-83 0-47 18-87t50-70q-53-21-97-57-43-35-75-81.5t-49-101.5q-18-55-18-115 0-18 12.5-30.5t30.5-12.5h341q18 0 30.5 12.5t12.5 30.5q0 17-12.5 29.5t-30.5 12.5h-296q8 55 34 101 26 47 65.5 81.5t89.5 54.5q51 19 107 19v0zM640 619q0-53-37.5-90.5t-90.5-37.5-90.5 37.5-37.5 90.5 37.5 90.5 90.5 37.5 90.5-37.5 37.5-90.5zM725 363q0 17 12.5 29.5t30.5 12.5 30.5-12.5 12.5-29.5v-86h85q18 0 30.5-12.5t12.5-29.5q0-18-12.5-30.5t-30.5-12.5h-85v-85q0-18-12.5-30.5t-30.5-12.5-30.5 12.5-12.5 30.5v85h-85q-18 0-30.5 12.5t-12.5 30.5q0 17 12.5 29.5t30.5 12.5h85v86z" />
<glyph unicode="&#xe903;" glyph-name="uniE903" d="M768 661q0-17 12.5-29.5t30.5-12.5q17 0 29.5 12.5t12.5 29.5v43h43q18 0 30.5 12.5t12.5 30.5q0 17-12.5 29.5t-30.5 12.5h-43v43q0 18-12.5 30.5t-29.5 12.5q-18 0-30.5-12.5t-12.5-30.5v-43h-43q-17 0-29.5-12.5t-12.5-29.5q0-18 12.5-30.5t29.5-12.5h43v-43zM405 491q27 0 45.5 18.5t18.5 45.5q0 26-18.5 45t-45.5 19q-26 0-45-19t-19-45q0-27 19-45.5t45-18.5zM683 555q0-27-19-45.5t-45-18.5q-27 0-45.5 18.5t-18.5 45.5q0 26 18.5 45t45.5 19q26 0 45-19t19-45zM343 354q5-12 13.5-27.5t22.5-31.5q25-28 58-44t75-16 75 16 58 44q14 16 22.5 31.5t13.5 27.5q5 16-2.5 30t-23.5 19-31-2-21-22q-1-6-6.5-15t-14.5-19q-13-16-30.5-24.5t-39.5-8.5-39.5 8.5-30.5 24.5q-9 10-14.5 19t-6.5 15q-6 15-21 22t-31 2-23.5-19-2.5-30v0zM512 149q-62 0-116 24-55 23-95.5 63.5t-63.5 95.5q-24 54-24 116t24 116q23 55 63.5 95.5t95.5 63.5q54 24 116 24 18 0 30.5 12.5t12.5 29.5q0 18-12.5 30.5t-30.5 12.5q-80 0-149-30-70-30-122.5-82.5t-82.5-122.5q-30-69-30-149t30-149q30-70 82.5-122.5t122.5-82.5q69-30 149-30t149 30q70 30 122.5 82.5t82.5 122.5q30 69 30 149 0 18-12.5 30.5t-30.5 12.5q-17 0-29.5-12.5t-12.5-30.5q0-62-24-116-23-55-63.5-95.5t-95.5-63.5q-54-24-116-24v0z" />
<glyph unicode="&#xe904;" glyph-name="uniE904" d="M542 692q-12 12-30 12t-30-12l-196-196q-13-13-13-30.5t13-29.5q12-13 29.5-13t30.5 13l166 166 166-166q13-13 30.5-13t29.5 13q13 12 13 29.5t-13 30.5l-196 196zM738 282l-196 196q-12 13-30 13t-30-13l-196-196q-13-12-13-29.5t13-30.5q12-12 29.5-12t30.5 12l166 167 166-167q13-12 30.5-12t29.5 12q13 13 13 30.5t-13 29.5v0z" />
<glyph unicode="&#xe905;" glyph-name="uniE905" d="M128 366v104q0 7 5 12.5t12 5.5h185l-81-139h-104q-7 0-12 5t-5 12v0zM259 153l-59-40q-6-4-9.5-1.5t-2.5 9.5l8 68q1 7 6 9.5t11-1.5l45-25q7-4 7-9.5t-6-9.5v0zM273 191l-45 26q-6 4-8 11t1 13l211 365q4 6 11 8t13-2l45-26q7-3 8.5-10t-1.5-13l-211-365q-3-6-10-8t-14 1v0zM434 349l80 139h46l65-139h-191zM695 307q-7 4-25 39-19 35-39.5 80t-40.5 89q-19 44-27 64-9 20-24 54-16 34-29 67t-20 59 2 30q12 6 48.5-58.5t68.5-115.5q17-26 40-67 23-42 45-83.5t40-73.5q17-33 21-41 8-15-3-26.5t-20-15.5q-9-3-16.5-5t-20.5 4v0zM754 212l-27 43q-4 7-2.5 14t8.5 11l26 13q7 3 14.5 0.5t11.5-9.5l22-41q3-7 1-15t-9-12l-18-11q-7-4-14.5-2t-12.5 9v0zM855 99q-4 14-29 20t-40 27q-15 20-8.5 31.5t12.5 16.5q59 33 62-31l3-64zM896 366q0-7-5-12t-12-5h-93q0 4-1.5 8t-3.5 8q-2 3-6.5 11t-10.5 20q-9 18-21.5 41.5t-26.5 50.5h163q7 0 12-5.5t5-12.5v-104z" />
<glyph unicode="&#xe906;" glyph-name="uniE906" d="M171 747q0 17 12.5 29.5t29.5 12.5h86q17 0 29.5-12.5t12.5-29.5v-86q0-17-12.5-29.5t-29.5-12.5h-86q-17 0-29.5 12.5t-12.5 29.5v86zM171 491q0 17 12.5 29.5t29.5 12.5h86q17 0 29.5-12.5t12.5-29.5v-86q0-17-12.5-29.5t-29.5-12.5h-86q-17 0-29.5 12.5t-12.5 29.5v86zM469 789q-17 0-29.5-12.5t-12.5-29.5v-86q0-17 12.5-29.5t29.5-12.5h86q17 0 29.5 12.5t12.5 29.5v86q0 17-12.5 29.5t-29.5 12.5h-86zM427 491q0 17 12.5 29.5t29.5 12.5h86q17 0 29.5-12.5t12.5-29.5v-86q0-17-12.5-29.5t-29.5-12.5h-86q-17 0-29.5 12.5t-12.5 29.5v86zM725 789q-17 0-29.5-12.5t-12.5-29.5v-86q0-17 12.5-29.5t29.5-12.5h86q17 0 29.5 12.5t12.5 29.5v86q0 17-12.5 29.5t-29.5 12.5h-86zM683 491q0 17 12.5 29.5t29.5 12.5h86q17 0 29.5-12.5t12.5-29.5v-86q0-17-12.5-29.5t-29.5-12.5h-86q-17 0-29.5 12.5t-12.5 29.5v86zM213 277q-17 0-29.5-12.5t-12.5-29.5v-86q0-17 12.5-29.5t29.5-12.5h86q17 0 29.5 12.5t12.5 29.5v86q0 17-12.5 29.5t-29.5 12.5h-86zM427 235q0 17 12.5 29.5t29.5 12.5h86q17 0 29.5-12.5t12.5-29.5v-86q0-17-12.5-29.5t-29.5-12.5h-86q-17 0-29.5 12.5t-12.5 29.5v86zM725 277q-17 0-29.5-12.5t-12.5-29.5v-86q0-17 12.5-29.5t29.5-12.5h86q17 0 29.5 12.5t12.5 29.5v86q0 17-12.5 29.5t-29.5 12.5h-86z" />
<glyph unicode="&#xe907;" glyph-name="uniE907" d="M129 721q-1 18 10.5 31.5t28.5 14.5l680 60q18 1 31.5-10t15.5-29l3-42-765-67-4 42zM384 405q0 18 12.5 30.5t30.5 12.5h170q18 0 30.5-12.5t12.5-30.5q0-17-12.5-29.5t-30.5-12.5h-170q-18 0-30.5 12.5t-12.5 29.5zM128 149q0-35 25-60t60-25h598q35 0 60 25t25 60v470h-768v-470zM213 533h598v-384h-598v384z" />
<glyph unicode="&#xe908;" glyph-name="uniE908" d="M497 194q-49-48-118.5-48t-118.5 47q-49 48-48.5 116t48.5 115l305 298q29 28 69.5 28t68.5-28q29-28 29-67t-29-67l-286-280q-8-7-19-7t-20 8q-8 8-8 19t8 19l266 260q12 12 12 29t-12 29-29.5 12-29.5-12l-266-260q-32-32-32-77t32-77q33-32 79-32t78 32l287 279q53 52 52.5 125t-53.5 125-128 52-128-52l-305-298q-36-36-55-81-18-45-18-92t18-92q19-46 55-81 37-36 83-54t94.5-18 94.5 18 83 54l285 279q12 12 12 28.5t-12 28.5-29.5 12-29.5-12l-285-278z" />
<glyph unicode="&#xe909;" glyph-name="uniE909" d="M311 478l302 302q12 12 30 12t30-12q13-13 13-30.5t-13-29.5l-271-272 271-272q13-12 13-29.5t-13-30.5q-12-12-30-12t-30 12l-302 302q-12 12-12 30t12 30v0z" />
<glyph unicode="&#xe90a;" glyph-name="uniE90A" d="M128 747v-598q0-35 25-60t60-25h598q35 0 60 25t25 60v598q0 35-25 60t-60 25h-598q-35 0-60-25t-25-60v0zM213 704q0 18 12.5 30.5t30.5 12.5h171q17 0 29.5-12.5t12.5-30.5v-427q0-17-12.5-29.5t-29.5-12.5h-171q-18 0-30.5 12.5t-12.5 29.5v427zM597 747h171q18 0 30.5-12.5t12.5-30.5v-256q0-18-12.5-30.5t-30.5-12.5h-171q-17 0-29.5 12.5t-12.5 30.5v256q0 18 12.5 30.5t29.5 12.5z" />
<glyph unicode="&#xe90b;" glyph-name="uniE90B" d="M544 546q-48 0-87-25t-60-65q-20 40-59 65t-87 25q-28 0-53.5-9t-45.5-25v142q-1 14-10.5 24t-23.5 10q-13 0-22.5-10t-10.5-24v0-280q2-69 50-117.5t116-48.5q48 0 87 25t59 65q21-40 60-65t87-25q68 0 117 49.5t49 119.5-49 119.5-117 49.5zM932 261l-84 116 84 116q8 11 6 24.5t-13 21.5q-10 9-23.5 7t-22.5-13v0l-73-100-73 100q-8 11-21.5 13t-24.5-7q-11-8-13-21.5t6-24.5v0l85-116-85-116q-8-11-6-24.5t13-21.5q11-9 24.5-7t21.5 13v0l73 100 73-100q9-11 22.5-13t23.5 7q11 8 13 21.5t-6 24.5v0zM544 276q-41 0-70.5 29.5t-29.5 71.5 29.5 71.5 70.5 29.5 70-29.5 29-71.5-29-71.5-70-29.5zM251 276q-41 0-70 29.5t-29 71.5 29 71.5 70 29.5 70-29.5 29-71.5-29-71.5-70-29.5z" />
<glyph unicode="&#xe90c;" glyph-name="uniE90C" d="M299 747v-43h-86v-597h598v597h-86v43q0 35-25 60t-60 25h-256q-35 0-60-25t-25-60v0zM384 704v43h256v-43h-256zM299 576q0 18 12.5 30.5t29.5 12.5h86q17 0 29.5-12.5t12.5-30.5v-299q0-17-12.5-29.5t-29.5-12.5h-86q-17 0-29.5 12.5t-12.5 29.5v299zM597 619h86q17 0 29.5-12.5t12.5-30.5v-213q0-18-12.5-30.5t-29.5-12.5h-86q-17 0-29.5 12.5t-12.5 30.5v213q0 18 12.5 30.5t29.5 12.5v0zM171 704q-36 0-61-25t-25-60v-427q0-35 25-60t61-25v597zM853 107v597q36 0 61-25t25-60v-427q0-35-25-60t-61-25z" />
<glyph unicode="&#xe90d;" glyph-name="uniE90D" d="M555 832q0 18-12.5 30.5t-30.5 12.5-30.5-12.5-12.5-30.5 12.5-30.5 30.5-12.5 30.5 12.5 12.5 30.5zM171 661v-426h682v426h-682zM85 661q0 36 25 61t61 25h682q36 0 61-25t25-61v-426q0-36-25-61t-61-25h-682q-36 0-61 25t-25 61v426zM341 576q0 18 12.5 30.5t30.5 12.5 30.5-12.5 12.5-30.5v-85q0-18-12.5-30.5t-30.5-12.5-30.5 12.5-12.5 30.5v85zM597 576q0 18 12.5 30.5t30.5 12.5 30.5-12.5 12.5-30.5v-85q0-18-12.5-30.5t-30.5-12.5-30.5 12.5-12.5 30.5v85zM512 277q18 0 30.5 12.5t12.5 30.5-12.5 30.5-30.5 12.5-30.5-12.5-12.5-30.5 12.5-30.5 30.5-12.5z" />
<glyph unicode="&#xe90e;" glyph-name="uniE90E" d="M256 789q0 18 12.5 30.5t30.5 12.5q17 0 29.5-12.5t12.5-30.5v-42h342v42q0 18 12.5 30.5t29.5 12.5q18 0 30.5-12.5t12.5-30.5v-42h43q35 0 60-25t25-60v-513q0-35-25-60t-60-25h-598q-35 0-60 25t-25 60v513q0 35 25 60t60 25h43v42zM224 552v-348q0-18 12.5-30t29.5-12h492q17 0 29.5 12t12.5 30v348h-576zM384 405v86h-85v-86h85zM725 491v-86h-85v86h85zM469 405h86v86h-86v-86zM299 235v85h85v-85h-85zM469 235h86v85h-86v-85zM725 320v-85h-85v85h85z" />
<glyph unicode="&#xe90f;" glyph-name="uniE90F" d="M640 789q0 18 12.5 30.5t30.5 12.5h85q18 0 30.5-12.5t12.5-30.5v-42h-171v42zM384 405q0-53 37.5-90.5t90.5-37.5 90.5 37.5 37.5 90.5-37.5 90.5-90.5 37.5-90.5-37.5-37.5-90.5zM512 363q-18 0-30.5 12.5t-12.5 29.5q0 18 12.5 30.5t30.5 12.5 30.5-12.5 12.5-30.5q0-17-12.5-29.5t-30.5-12.5zM171 704h682q36 0 61-25t25-60v-427q0-35-25-60t-61-25h-682q-36 0-61 25t-25 60v427q0 35 25 60t61 25v0zM853 619h-682v-427h682v427z" />
<glyph unicode="&#xe910;" glyph-name="uniE910" d="M213 747h598q35 0 60-25t25-61v-426q0-36-25-61t-60-25h-598q-35 0-60 25t-25 61v426q0 36 25 61t60 25v0zM811 661h-598v-256h598v256zM725 277q0-17 12.5-29.5t30.5-12.5 30.5 12.5 12.5 29.5q0 18-12.5 30.5t-30.5 12.5-30.5-12.5-12.5-30.5zM256 235h171q17 0 29.5 12.5t12.5 29.5q0 18-12.5 30.5t-29.5 12.5h-171q-18 0-30.5-12.5t-12.5-30.5q0-17 12.5-29.5t30.5-12.5z" />
<glyph unicode="&#xe911;" glyph-name="uniE911" d="M213 747h598q35 0 60-25t25-61v-426q0-36-25-61t-60-25h-598q-35 0-60 25t-25 61v426q0 36 25 61t60 25v0zM811 661h-598v-256h598v256z" />
<glyph unicode="&#xe912;" glyph-name="uniE912" d="M213 747q-35 0-60-25t-25-61v-426q0-36 25-61t60-25h291q-12 20-19.5 41.5t-11.5 44.5h-217q-18 0-30.5 12.5t-12.5 29.5q0 18 12.5 30.5t30.5 12.5h213v85h-256v256h598v-142q24-9 45.5-21.5t39.5-29.5v193q0 36-25 61t-60 25h-598zM550 495q-17 0-29.5-12.5t-12.5-30.5v-128q0-16 11-28t27-14h132q18 0 30.5 12.5t12.5 29.5q0 18-12.5 30.5t-30.5 12.5h-44l1 1q37 37 90 37t91-37q37-38 37-91t-37-90q-38-38-91-38t-90 38q-13 12-30.5 12t-30.5-12q-12-13-12-30.5t12-30.5q32-31 71-46 39-16 80-16t81 16q39 15 70 46 31 32 47 71t16 80-16 81q-16 39-47 70-29 29-65 45-36 15-74 17t-75-9q-38-11-69-36v7q0 18-12.5 30.5t-30.5 12.5v0z" />
<glyph unicode="&#xe913;" glyph-name="uniE913" d="M287 434q-12 13-29.5 14t-30.5-11-13.5-30 11.5-31l154-167q17-17 39.5-17t38.5 16l4 4t12 11l41 41q33 32 64.5 63.5t62.5 61.5l1 2q54 53 94 92.5t62 62.5q13 13 13 30.5t-13 29.5q-13 13-30.5 13t-29.5-13l-62.5-62.5t-93.5-92.5l-1-1q-31-30-62.5-61.5t-64.5-63.5l-34-34-133 143z" />
<glyph unicode="&#xe914;" glyph-name="uniE914" d="M256 789q-35 0-60-25t-25-60v-512q0-35 25-60t60-25h512q35 0 60 25t25 60v213q0 18-12.5 30.5t-29.5 12.5q-18 0-30.5-12.5t-12.5-30.5v-213h-512v512h427q17 0 29.5 12.5t12.5 30.5q0 17-12.5 29.5t-29.5 12.5h-427zM373 520q-12 13-30 13.5t-31-11.5-13.5-29.5 11.5-30.5l154-167q17-17 39.5-17.5t38.5 15.5l16 16q9 9 19.5 19t22.5 22q32 31 64 62.5t62 61.5l2 2q53 53 93 92.5t63 62.5q12 13 12 30.5t-13 30.5q-12 12-30 12t-30-13l-62.5-62.5t-92.5-91.5l-2-2q-30-30-62-61.5t-64-63.5l-35-34-132 144z" />
<glyph unicode="&#xe915;" glyph-name="uniE915" d="M768 704v-512h-512v512h512zM256 789q-35 0-60-25t-25-60v-512q0-35 25-60t60-25h512q35 0 60 25t25 60v512q0 35-25 60t-60 25h-512z" />
<glyph unicode="&#xe916;" glyph-name="uniE916" d="M256 789q-35 0-60-25t-25-60v-512q0-35 25-60t60-25h512q35 0 60 25t25 60v213q0 18-12.5 30.5t-29.5 12.5q-18 0-30.5-12.5t-12.5-30.5v-213h-512v512h427q17 0 29.5 12.5t12.5 30.5q0 17-12.5 29.5t-29.5 12.5h-427zM373 520q-12 13-30 13.5t-31-11.5-13.5-29.5 11.5-30.5l154-167q17-17 39.5-17.5t38.5 15.5l16 16q9 9 19.5 19t22.5 22q32 31 64 62.5t62 61.5l2 2q53 53 93 92.5t63 62.5q12 13 12 30.5t-13 30.5q-12 12-30 12t-30-13l-62.5-62.5t-92.5-91.5l-2-2q-30-30-62-61.5t-64-63.5l-35-34-132 144z" />
<glyph unicode="&#xe917;" glyph-name="uniE917" d="M555 704q0 18-12.5 30.5t-30.5 12.5-30.5-12.5-12.5-30.5v-256q0-8 3.5-16t9.5-14l106-107q13-12 30.5-12t30.5 12q12 13 12 30.5t-12 30.5l-94 94v238zM939 448q0-88-34-166-33-78-91-136t-136-91q-78-34-166-34t-166 34q-78 33-136 91t-91 136q-34 78-34 166t34 166q33 78 91 136t136 91q78 34 166 34t166-34q78-33 136-91t91-136q34-78 34-166v0zM512 107q71 0 133 26 62 27 108.5 73.5t73.5 108.5q26 62 26 133t-26 133q-27 62-73.5 108.5t-108.5 73.5q-62 26-133 26t-133-26q-62-27-108.5-73.5t-73.5-108.5q-26-62-26-133t26-133q27-62 73.5-108.5t108.5-73.5q62-26 133-26z" />
<glyph unicode="&#xe918;" glyph-name="uniE918" d="M452 448l-226 226q-13 12-13 30t13 30q12 13 30 13t30-13l226-226 226 226q12 13 30 13t30-13q13-12 13-30t-13-30l-226-226 226-226q13-12 13-30t-13-30q-12-13-30-13t-30 13l-226 226-226-226q-12-13-30-13t-30 13q-13 12-13 30t13 30l226 226z" />
<glyph unicode="&#xe919;" glyph-name="uniE919" d="M299 747h426q0 35-25 60t-60 25h-256q-35 0-60-25t-25-60v0zM299 704h426q36 0 61-25t25-60h-598q0 35 25 60t61 25v0zM213 491v-342h598v342h-598zM128 491q0 35 25 60t60 25h598q35 0 60-25t25-60v-342q0-35-25-60t-60-25h-598q-35 0-60 25t-25 60v342zM640 320h-256v43q0 17-12.5 29.5t-30.5 12.5q-17 0-29.5-12.5t-12.5-29.5v-86q0-17 12.5-29.5t29.5-12.5h342q17 0 29.5 12.5t12.5 29.5v86q0 17-12.5 29.5t-29.5 12.5q-18 0-30.5-12.5t-12.5-29.5v-43z" />
<glyph unicode="&#xe91a;" glyph-name="uniE91A" d="M683 235h-150l-180-145q-41-35-90.5-12t-49.5 77v114q-57 33-92.5 92t-35.5 130q0 53 20 99 21 47 55.5 81.5t81.5 55.5q46 20 99 20h342q53 0 99-20 47-21 81.5-55.5t55.5-81.5q20-46 20-99t-20-100q-21-47-55.5-81.5t-81.5-54.5q-46-20-99-20v0zM683 661h-342q-70 0-120-50t-50-120q0-60 36-105.5t92-60.5v-176l213 171h171q70 0 120 50t50 121q0 70-50 120t-120 50z" />
<glyph unicode="&#xe91b;" glyph-name="uniE91B" d="M213 277h86v470h341v85h-341q-35 0-60.5-25t-25.5-60v-470zM341 149v470q0 35 25 60t61 25h341q35 0 60-25t25-60v-470q0-35-25-60t-60-25h-341q-36 0-61 25t-25 60v0zM427 619v-470h341v470h-341z" />
<glyph unicode="&#xe91c;" glyph-name="uniE91C" d="M128 704h341q18 0 30.5-12.5t12.5-30.5q0-17-12.5-29.5t-30.5-12.5h-341q-18 0-30.5 12.5t-12.5 29.5q0 18 12.5 30.5t30.5 12.5v0zM171 277h682v171h-682v-171zM85 448q0 35 25 60t61 25h682q36 0 61-25t25-60v-171q0-35-25-60t-61-25h-682q-36 0-61 25t-25 60v171z" />
<glyph unicode="&#xe91d;" glyph-name="uniE91D" d="M171 747q-18 0-30.5-12.5t-12.5-30.5 12.5-30.5 30.5-12.5h682q18 0 30.5 12.5t12.5 30.5-12.5 30.5-30.5 12.5h-682zM171 576q-18 0-30.5-12.5t-12.5-30.5q0-17 12.5-29.5t30.5-12.5h682q18 0 30.5 12.5t12.5 29.5q0 18-12.5 30.5t-30.5 12.5h-682zM128 363q0 17 12.5 29.5t30.5 12.5h682q18 0 30.5-12.5t12.5-29.5q0-18-12.5-30.5t-30.5-12.5h-682q-18 0-30.5 12.5t-12.5 30.5v0zM171 235q-18 0-30.5-12.5t-12.5-30.5 12.5-30.5 30.5-12.5h426q18 0 30.5 12.5t12.5 30.5-12.5 30.5-30.5 12.5h-426z" />
<glyph unicode="&#xe91e;" glyph-name="uniE91E" d="M811 149v384h85v-384q0-35-25-60t-60-25h-427q-35 0-60 25t-25 60v598q0 35 25 60t60 25h225q15 0 29-5t26-15l216-181q8-6 12-14.5t4-17.5v-23h-192q-27 0-45.5 19t-18.5 45v107h-256v-598h427zM213 235h43v-86h-43q-35 0-60 25t-25 61v426q0 36 25 61t60 25h43v-86h-43v-426z" />
<glyph unicode="&#xe91f;" glyph-name="uniE91F" d="M482 247l-302 302q-12 12-12 30t12 30q13 13 30.5 13t29.5-13l272-271 272 271q12 13 29.5 13t30.5-13q12-12 12-30t-12-30l-302-302q-12-12-30-12t-30 12v0z" />
<glyph unicode="&#xe920;" glyph-name="uniE920" d="M685 726q9 1 17 2t16 1q45 0 85-17 40-16 70.5-45.5t47.5-68.5q18-40 18-86t-18-89q-18-42-48-74.5t-69-51.5q-39-20-83-20h-123v85h123q53 0 93 45.5t40 104.5q0 57-40 94.5t-92 37.5h-1q-12 0-22-1.5t-19-5.5l-8-2q-19-8-28 1l-9 9-6 12q-24 43-67 66t-92 24q-67-1-116-44.5t-58-111.5l-1-14-5-11t-24-11v0-1h-12q-36 0-60-26.5t-24-65.5q0-38 27-69t61-31h169v-85h-169q-69 0-121 56t-52 129q0 64 38 112.5t96 61.5q12 43 35 79 24 36 57 61.5t73 40.5q41 14 86 15 64-1 121.5-28t93.5-78v0zM396 222q13 13 30.5 13t29.5-13l13-13v324q0 18 12.5 30.5t30.5 12.5 30.5-12.5 12.5-30.5v-326l13 13q12 13 29.5 13t30.5-13q12-12 12-29.5t-12-30.5l-82-82q-7-7-15.5-10.5t-18.5-3.5v0 0q-5 0-10.5 1.5t-9.5 3.5l-6 4t-6 5l-84 84q-12 13-12 30.5t12 29.5v0z" />
<glyph unicode="&#xe921;" glyph-name="uniE921" d="M320 747l-192-123 192-122-192-122 192-123 192 123 192-123 192 123-192 122 192 122-192 123-192-123-192 123zM512 624l192-122-192-122-192 122zM512 94l-192 123 192 122 192-122z" />
<glyph unicode="&#xe922;" glyph-name="uniE922" d="M256 619q0 17-12.5 29.5t-30.5 12.5q-17 0-29.5-12.5t-12.5-29.5q0-18 12.5-30.5t29.5-12.5q18 0 30.5 12.5t12.5 30.5zM341 619q0-53-37.5-90.5t-90.5-37.5-90.5 37.5-37.5 90.5 37.5 90.5 90.5 37.5 90.5-37.5 37.5-90.5zM256 277q0 18-12.5 30.5t-30.5 12.5q-17 0-29.5-12.5t-12.5-30.5q0-17 12.5-29.5t29.5-12.5q18 0 30.5 12.5t12.5 29.5zM341 277q0-53-37.5-90.5t-90.5-37.5-90.5 37.5-37.5 90.5 37.5 90.5 90.5 37.5 90.5-37.5 37.5-90.5zM811 661q17 0 29.5-12.5t12.5-29.5q0-18-12.5-30.5t-29.5-12.5h-256q-18 0-30.5 12.5t-12.5 30.5q0 17 12.5 29.5t30.5 12.5h256zM555 747q-53 0-90.5-37.5t-37.5-90.5 37.5-90.5 90.5-37.5h256q53 0 90.5 37.5t37.5 90.5-37.5 90.5-90.5 37.5h-256zM555 320q-18 0-30.5-12.5t-12.5-30.5q0-17 12.5-29.5t30.5-12.5h128q17 0 29.5 12.5t12.5 29.5q0 18-12.5 30.5t-29.5 12.5h-128zM427 277q0 53 37.5 90.5t90.5 37.5h128q53 0 90.5-37.5t37.5-90.5-37.5-90.5-90.5-37.5h-128q-53 0-90.5 37.5t-37.5 90.5v0z" />
<glyph unicode="&#xe923;" glyph-name="uniE923" d="M334 342l90-91 362 362-90 91-362-362zM756 764l91-90q25-25 25-60.5t-25-60.5l-417-416-211 211 416 416q13 13 28.5 19t32.5 6q16 0 32-6t28-19v0zM222 89q-23-4-39 12t-11 39l33 162 179-180-162-33z" />
<glyph unicode="&#xe924;" glyph-name="uniE924" d="M213 235v348l203-203q39-39 94-39t94 39l207 207v-352h-598zM765 661l-221-220q-14-14-33.5-14t-33.5 14l-221 220h509zM811 747h-598q-35 0-60-25t-25-61v-426q0-36 25-61t60-25h598q35 0 60 25t25 61v426q0 36-25 61t-60 25z" />
<glyph unicode="&#xe925;" glyph-name="uniE925" d="M379 295q-14 16-22.5 31.5t-13.5 27.5q-5 16 2.5 30t23.5 19 31-2 21-22q1-6 6.5-15t14.5-19q13-16 30.5-24.5t39.5-8.5 39.5 8.5 30.5 24.5q9 10 14.5 19t6.5 15q6 15 21 22t31 2 23.5-19 2.5-30q-5-12-13.5-27.5t-22.5-31.5q-25-28-58-44t-75-16-75 16-58 44v0zM405 491q27 0 45.5 18.5t18.5 45.5q0 26-18.5 45t-45.5 19q-26 0-45-19t-19-45q0-27 19-45.5t45-18.5zM683 555q0-27-19-45.5t-45-18.5q-27 0-45.5 18.5t-18.5 45.5q0 26 18.5 45t45.5 19q26 0 45-19t19-45zM512 64q80 0 149 30 70 30 122.5 82.5t82.5 122.5q30 69 30 149t-30 149q-30 70-82.5 122.5t-122.5 82.5q-69 30-149 30t-149-30q-70-30-122.5-82.5t-82.5-122.5q-30-69-30-149t30-149q30-70 82.5-122.5t122.5-82.5q69-30 149-30zM512 149q-62 0-116 24-55 23-95.5 63.5t-63.5 95.5q-24 54-24 116t24 116q23 55 63.5 95.5t95.5 63.5q54 24 116 24t116-24q55-23 95.5-63.5t63.5-95.5q24-54 24-116t-24-116q-23-55-63.5-95.5t-95.5-63.5q-54-24-116-24v0z" />
<glyph unicode="&#xe926;" glyph-name="uniE926" d="M299 747v-43h-86v-597h598v597h-86v43q0 35-25 60t-60 25h-256q-35 0-60-25t-25-60v0zM384 704v43h256v-43h-256zM299 576q0 18 12.5 30.5t29.5 12.5h86q17 0 29.5-12.5t12.5-30.5v-299q0-17-12.5-29.5t-29.5-12.5h-86q-17 0-29.5 12.5t-12.5 29.5v299zM597 619h86q17 0 29.5-12.5t12.5-30.5v-213q0-18-12.5-30.5t-29.5-12.5h-86q-17 0-29.5 12.5t-12.5 30.5v213q0 18 12.5 30.5t29.5 12.5v0zM171 704q-36 0-61-25t-25-60v-427q0-35 25-60t61-25v597zM853 107v597q36 0 61-25t25-60v-427q0-35-25-60t-61-25z" />
<glyph unicode="&#xe927;" glyph-name="uniE927" d="M458 593q0 18 13 31t31 13h1l177-1q19 0 32-13t13-31l1-178q0-18-13-31t-32-13q-18 0-31 13t-13 31l-1 73-286-286q-13-13-30.5-13t-30.5 13q-12 12-12 29.5t12 30.5l287 287h-73q-18 0-31 13t-14 32v0z" />
<glyph unicode="&#xe928;" glyph-name="uniE928" d="M939 448q0 88-34 166-33 78-91 136t-136 91q-78 34-166 34t-166-34q-78-33-136-91t-91-136q-34-78-34-166 0-80 28-151 27-72 75.5-128t114.5-93q66-38 142-50v299h-108v123h108v94q0 80 44 123t117 43q35 0 65.5-4l30.5-4v-105h-54q-40 0-54.5-21t-14.5-46v-80h118l-19-123h-99v-299q76 12 142 50 66 37 114.5 93t75.5 128q28 71 28 151v0z" />
<glyph unicode="&#xe929;" glyph-name="uniE929" d="M197 704q-24 0-36.5-20t-1.5-42l12-23h682l12 23q11 22-1.5 42t-36.5 20h-630zM463 204q3-6 8-9t12-3h58q7 0 12 3t8 9l36 73h-170l36-73zM725 405h-426l-43 86h512l-43-86z" />
<glyph unicode="&#xe92a;" glyph-name="uniE92A" d="M772 772q21-21 34-47.5t16-54.5q2-17 0.5-32t-5.5-27q-3-13-7-22t-7-15l-3-4q2-1 3.5-2t3.5-2q2-2 7.5-7t13.5-13q15-16 32.5-40t24.5-48q3-12 5-21t1-16l-1-12q-2 3-4.5 7.5t-5.5 10.5q-6 11-23 35.5t-31 36.5l-41 31q-4-1-15.5-6.5t-31.5-16.5q-17-9-35-14t-27-6l-10-1-21-142q16-9 23-27t8-36q1-9 1-16.5t-1-12.5l-2-11 27-11q0 1 0.5 3.5t0.5 5.5l3.5 21t6.5 26 10.5 20 14.5 9q7 0 10.5-11.5t3.5-22.5v-11l2.5 2.5t2.5 3.5q3 4 12.5 14t17.5 16q9 7 18 11.5t14 0.5q6-3 5-12.5t-5-22.5q-5-13-11-24.5t-10-20.5l-5-8q5 2 13 4t23 2q8 0 12.5-1.5t5.5-4.5q4-7-1-15.5t-18-18.5q-26-22-59-38t-47-16q-11 0-22.5 7t-18.5 15q-2 4-4 9t-3 8l-1 3-34 10q-9-3-19.5-5t-20.5-2q-9 0-20.5 2t-17.5 3l-6 2q-1-1-2.5-3.5t-3.5-4.5q-3-5-13-20t-21-28q-10-13-25-28.5t-28-25.5q-4-3-8.5-4.5t-8.5-1.5q-8 1-17 4.5t-18 9.5q-4 4-6.5 8t-4.5 8q-2 5-3 8t-2 4q-23 29-61 53.5t-91 43.5q-27 11-48 22.5t-36 24.5q-30 26-23.5 45t19.5 39q7 10 13 17.5t12 12.5l10 10v7t-1 9q0 11 2.5 36.5t9.5 43.5q20 54 49.5 89t68.5 51q11 4 23.5 7.5t27.5 6.5q30 6 52 12.5t36 19.5q9 8 18.5 23t17.5 31q9 16 23 33t31 31q18 13 46.5 21.5t63.5 8.5 65.5-12.5 50.5-33.5v0z" />
<glyph unicode="&#xe92b;" glyph-name="uniE92B" d="M713 418l-302-302q-12-12-30-12t-30 12q-13 13-13 30.5t13 29.5l271 272-271 272q-13 12-13 29.5t13 30.5q12 12 30 12t30-12l302-302q12-12 12-30t-12-30v0z" />
<glyph unicode="&#xe92c;" glyph-name="uniE92C" d="M512 235q-44 0-83 16-39 17-68 46t-46 68q-16 39-16 83t16 83q17 39 46 68t68 46q39 16 83 16t83-16q39-17 68-46t46-68q16-39 16-83t-16-83q-17-39-46-68t-68-46q-39-16-83-16zM869 368q-25 8-41 30t-16 50 16 50 41 30q8 3 12 10t2 15q-7 22-16 43.5t-20 41.5q-4 7-11.5 9t-14.5-1q-12-5-26-6t-29 3q-21 5-37.5 21.5t-22.5 37.5q-4 15-2.5 29t6.5 27q2 7 0 14t-9 11q-19 11-40.5 20t-43.5 15q-8 3-15-1t-10-12q-8-25-30-41t-50-16-50 16-30 41q-3 8-10 12t-15 1q-23-6-44-15t-41-20q-7-4-9.5-11t0.5-14q5-12 6-25t-2-27q-5-22-21.5-39.5t-38.5-23.5q-15-4-28.5-3t-26.5 6q-7 3-14 0.5t-11-8.5q-11-20-20-41.5t-15-43.5q-3-8 1-15t12-10q24-9 40-30.5t16-49.5-16-49.5-40-30.5q-8-3-12-10t-1-14q5-20 13-39.5t17-37.5q4-7 12-9t15 1q19 9 42 7.5t48-17.5q3-3 6.5-6t6.5-7q17-26 17.5-50t-9.5-43q-4-7-2-15t9-12q21-12 43.5-22t46.5-16q8-3 15 1t10 12q8 25 30 41.5t50 16.5 50-16.5 31-41.5q2-8 9-12t15-1q23 6 45.5 15.5t43.5 21.5q7 4 9 12t-2 15q-10 20-9.5 44t17.5 50q3 4 6 7t7 6q25 16 48.5 17.5t42.5-7.5q7-4 15-1.5t11 9.5q10 18 18 37t13 39q3 8-1 15t-12 10v0z" />
<glyph unicode="&#xe92d;" glyph-name="uniE92D" d="M512 832q-80 0-149-31-70-31-122.5-84.5t-82.5-124.5q-30-72-30-154 0-65 20-124 19-59 54-108t83-85q48-37 106-56 14-3 20 4t6 15q0 7-0.5 24.5t-0.5 42.5q-80-18-104.5 17l-24.5 35q-13 35-28 46.5l-15 11.5q-26 18-11.5 21l14.5 3q29-2 44-21.5l15-19.5q25-45 60-42.5t52 10.5q2 19 9 32t15 20q-64 8-119.5 45t-55.5 150q0 32 10.5 58.5t29.5 47.5q-3 7-7.5 35t10.5 69l25.5-1t80.5-40q23 7 47.5 10t48.5 4q24-1 48.5-4t47.5-10q55 39 80.5 40l25.5 1q15-41 10.5-69t-7.5-35q19-21 29.5-47.5t10.5-58.5q0-114-55.5-150.5t-119.5-43.5q10-10 18-28t8-45q0-40-0.5-69.5t-0.5-38.5q0-8 6-15t21-4q57 19 105 56 48 36 83 85t54 108q20 59 20 124 0 82-30 154-30 71-82.5 124.5t-122.5 84.5q-69 31-149 31v0z" />
<glyph unicode="&#xe92e;" glyph-name="uniE92E" d="M777 732l-109-106q-21 20-57.5 39t-90.5 19q-76 0-136-45.5t-83-114.5v0q-6-18-9.5-37t-3.5-39 3.5-39 9.5-37l-124-96q-20 39-30.5 82.5t-10.5 89.5 10.5 89.5 30.5 82.5v0q23 47 59 86 35 39 79.5 67t96.5 44q51 15 108 15 77 0 142-26.5t115-73.5v0zM880 518q4-18 6-36.5t2-42.5q0-87-30-159.5t-84-122.5v0q-48-44-112.5-68.5t-141.5-24.5q-57 0-108 15-52 16-96.5 44t-79.5 67-59 86l124 96q23-69 83-114.5t136-45.5q43 0 75.5 11t57.5 28v0q38 27 56.5 62.5t21.5 61.5h-211v143h360z" />
<glyph unicode="&#xe92f;" glyph-name="uniE92F" d="M675 832l-290-3 250-432 289 3zM85 349l147-249 250 432-147 249-250-432zM440 342l-142-252h499l142 252h-499z" />
<glyph unicode="&#xe930;" glyph-name="uniE930" d="M264 609q-31-31-31-75.5t31-75.5l256-257 257 257q31 31 31 75.5t-31 75.5q-32 31-76 31t-75-31l-76-76q-12-12-29.5-12t-30.5 12l-75 76q-32 31-76 31t-75-31v0zM203 398q-56 56-56 135.5t56 135.5q57 56 136.5 56t135.5-56l45-45 45 45q57 56 136.5 56t135.5-56 56-135.5-56-135.5l-287-287q-12-13-29.5-13t-30.5 13l-287 287z" />
<glyph unicode="&#xe931;" glyph-name="uniE931" d="M85 448q0 88 34 166 33 78 91 136t136 91q78 34 166 34t166-34q78-33 136-91t91-136q34-78 34-166t-34-166q-33-78-91-136t-136-91q-78-34-166-34t-166 34q-78 33-136 91t-91 136q-34 78-34 166v0zM171 448q0-71 26-133 27-62 73.5-108.5t108.5-73.5q62-26 133-26t133 26q62 27 108.5 73.5t73.5 108.5q26 62 26 133t-26 133q-27 62-73.5 108.5t-108.5 73.5q-62 26-133 26t-133-26q-62-27-108.5-73.5t-73.5-108.5q-26-62-26-133v0zM341 533q0 41 18 75 17 35 46 58.5t67 32.5q38 10 80 0 46-10 80.5-44.5t45.5-80.5q16-68-17-124t-91-77q-7-2-11-7.5t-4-12.5v10q0-18-12.5-30.5t-30.5-12.5q-17 0-29.5 12.5t-12.5 30.5v43q0 17 12.5 29.5t29.5 12.5q35 0 60 25t25 60q0 36-25 61t-60 25-60-25.5-25-61.5q-1-17-13.5-29t-29.5-12-29 11-14 28v3zM512 192q-18 0-30.5 12.5t-12.5 30.5q0 17 12.5 29.5t30.5 12.5 30.5-12.5 12.5-29.5q0-18-12.5-30.5t-30.5-12.5z" />
<glyph unicode="&#xe932;" glyph-name="uniE932" d="M598 747q14-1 25-9t15-22l97-323 38 74q5 11 15.5 17.5t22.5 6.5h85q18 0 30.5-12.5t12.5-30.5-12.5-30.5-30.5-12.5h-59l-74-147q-5-11-16.5-17.5t-24.5-5.5-23.5 9.5-14.5 20.5l-89 298-128-384q-4-14-15.5-22t-25.5-8q-14 1-25 9t-15 22l-97 323-38-74q-5-11-15.5-17.5t-22.5-6.5h-85q-18 0-30.5 12.5t-12.5 30.5 12.5 30.5 30.5 12.5h59l74 147q5 11 16.5 17.5t24.5 5.5 23.5-9.5 14.5-20.5l89-298 128 384q4 14 15.5 22t25.5 8v0z" />
<glyph unicode="&#xe933;" glyph-name="uniE933" d="M153 516l329 328q12 13 30 13t30-13l329-328q12-12 18.5-28t6.5-33v-306q0-35-25-60t-60-25h-214q-17 0-29.5 12.5t-12.5 30.5v256h-86v-256q0-18-12.5-30.5t-29.5-12.5h-214q-35 0-60 25t-25 60v306q0 17 6.5 33t18.5 28v0zM555 448q35 0 60-25t25-60v-214h171v306l-299 299-299-299v-306h171v214q0 35 25 60t60 25h86z" />
<glyph unicode="&#xe934;" glyph-name="uniE934" d="M811 704v-512h-598v512h598zM213 789q-35 0-60-25t-25-60v-512q0-35 25-60t60-25h598q35 0 60 25t25 60v512q0 35-25 60t-60 25h-598zM610 478q12 13 30 13t30-13l86-85q12-13 12-30.5t-12-30.5q-13-12-30.5-12t-30.5 12l-55 56-98-98q-12-13-30-13t-30 13l-55 55-98-98q-13-12-30.5-12t-30.5 12q-12 13-12 30.5t12 30.5l128 128q13 12 30.5 12t30.5-12l55-56 98 98zM384 491q35 0 60 25t25 60-25 60-60 25-60-25-25-60 25-60 60-25v0z" />
<glyph unicode="&#xe935;" glyph-name="uniE935" d="M512 107q-71 0-133 26-62 27-108.5 73.5t-73.5 108.5q-26 62-26 133t26 133q27 62 73.5 108.5t108.5 73.5q62 26 133 26t133-26q62-27 108.5-73.5t73.5-108.5q26-62 26-133t-26-133q-27-62-73.5-108.5t-108.5-73.5q-62-26-133-26zM512 21q88 0 166 34 78 33 136 91t91 136q34 78 34 166t-34 166q-33 78-91 136t-136 91q-78 34-166 34t-166-34q-78-33-136-91t-91-136q-34-78-34-166t34-166q33-78 91-136t136-91q78-34 166-34v0zM469 491q0 17 12.5 29.5t30.5 12.5 30.5-12.5 12.5-29.5v-214q0-17-12.5-29.5t-30.5-12.5-30.5 12.5-12.5 29.5v214zM555 619q0-18-12.5-30.5t-30.5-12.5-30.5 12.5-12.5 30.5q0 17 12.5 29.5t30.5 12.5 30.5-12.5 12.5-29.5v0z" />
<glyph unicode="&#xe936;" glyph-name="uniE936" d="M512 645q-41 0-77-15-36-16-62.5-42.5t-42.5-62.5q-15-36-15-77t15-77q16-36 42.5-62.5t62.5-42.5q36-15 77-15t77 15q36 16 62.5 42.5t42.5 62.5q15 36 15 77t-15 77q-16 36-42.5 62.5t-62.5 42.5q-36 15-77 15zM512 320q-53 0-90.5 37.5t-37.5 90.5 37.5 90.5 90.5 37.5 90.5-37.5 37.5-90.5-37.5-90.5-90.5-37.5v0zM717 607q19 0 32.5 13.5t13.5 32.5-13.5 32.5-32.5 13.5-32.5-13.5-13.5-32.5 13.5-32.5 32.5-13.5zM512 832q-78 0-103-0.5t-56-1.5q-30-1-52-6t-41-12-35.5-17.5-32.5-26.5-26.5-32.5-17.5-35.5-12-41-6-52q-1-31-1.5-56t-0.5-103 0.5-102.5 1.5-55.5 6-53 12-40q7-19 17.5-35.5t26.5-33.5q16-16 32.5-26t35.5-18q19-7 41-11.5t52-6.5q31-1 56-1.5t103-0.5 102.5 0.5 55.5 1.5q31 2 53 6.5t40 11.5q19 8 36 18t33 26q16 17 26 33.5t18 35.5q7 18 11.5 40t6.5 53q1 31 1.5 55.5t0.5 102.5-0.5 103-1.5 56q-2 30-6.5 52t-11.5 41q-8 19-18 35.5t-26 32.5-33 26.5-36 17.5q-18 7-40 12t-53 6-55.5 1.5-102.5 0.5v0zM512 763q77 0 101-0.5t54-1.5q28-1 44.5-5t26.5-8q14-6 24-12.5t21-16.5q10-10 16.5-20.5t11.5-23.5q4-10 8-26.5t6-45.5q1-30 1.5-54t0.5-101-0.5-101-1.5-54q-2-28-6-44.5t-8-26.5q-5-14-11.5-24t-16.5-21q-11-10-21-16.5t-24-11.5q-10-4-26.5-8t-44.5-6q-30-1-54-1.5t-101-0.5-101 0.5-54 1.5q-28 2-45 6t-27 8q-13 5-23.5 11.5t-20.5 16.5q-10 11-16.5 21t-12.5 24q-4 10-8 26.5t-5 44.5q-1 30-1.5 54t-0.5 101 0.5 101 1.5 54q1 29 5 45.5t8 26.5q6 13 12.5 23.5t16.5 20.5 20.5 16.5 23.5 12.5q10 4 27 8t45 5q30 1 54 1.5t101 0.5v0z" />
<glyph unicode="&#xe937;" glyph-name="uniE937" d="M539 822q9 1 11 5.5l2 4.5 7-2.5t11-9.5q5-7 7-17.5t7-26.5 10.5-25 7.5-17q3-8 2-15.5l-1-7.5 20 4.5t33 0.5 14.5-12.5l1.5-8.5-26-8t-36-17l1-3t3-4q3-1 16.5-1t17.5-7q9 3 13.5 8.5t15.5 9.5q10 4 30.5-3.5t30.5-36.5 5-53-28-47q-22-23-56.5-25l-34.5-2 12.5 13t14.5 22q2 10-2 17.5t-15 14.5q-11 6-37.5 12t-33.5 10q5-13 24-40 18-28 38.5-56t35.5-51q16-23 15-27-9 0-18.5 9.5l-9.5 9.5 9-23.5t10-34.5q1-12-1-22.5l-2-10.5-4.5 2.5t-5.5 18.5q-6-10-13-23.5t-22-27.5q-14-15-26.5-18t-20.5-12q-8-8-8-27t2-39q2-21 11.5-32t24.5-16 39.5 2.5 30.5 8.5q7 0 11.5-3.5l4.5-3.5 15 7.5t32 5.5q17-3 31-19.5l14-16.5-2-10.5t-8-12.5q-5-3-20-2.5l-15 0.5 1.5-4.5t-8.5-5.5-39.5-1.5-57.5 1.5-51 4.5-32 5.5-15 6.5-7 11.5q-1 9 8.5 21.5t6.5 38.5-15 45.5-16 22.5q-5 4-16.5 8.5t-28.5-6.5q-16-12-23-27t-12-29q-2-8-1-24t9-26 20.5-16 13.5-10q14 0 28-4.5t24-14.5q7-7 15.5-20t2.5-17q-16-13-37-12l-21 1-17-8.5t-52-7.5q-36 2-46.5 8t-19.5 11q-50-4-60 4l-10 8 3.5 14t11.5 22q7 8 21.5 13t31.5 2l27 14.5t33 35.5q6 22-4 44.5t-9 35.5q-12 4-32 24.5t-53 69.5q-32 50-38 68t-9 30q-3 13-5 43.5t-4 46.5q-2 15-5.5 28l-3.5 13 5.5-7t8.5-21q3 13-0.5 34t-3.5 31q0 9 1.5 17l1.5 8 7.5-15t14.5-27q6-13 12.5-16.5l6.5-3.5 11 14 49-31h22.5t36.5-4q13-5 41.5-18.5t38.5-11.5q9 2 11 14.5t-4 30.5q-5 18-22 39.5t-20 30.5q-19 6-60.5 11t-48.5 9q2 10 13 20t42 13q-5 10-1.5 21t8.5 17q4 6 24.5 31.5t25.5 41.5q17-4 41-5.5t33 0.5v0z" />
<glyph unicode="&#xe938;" glyph-name="uniE938" d="M512 267q37 37 37 90.5t-37 90.5-90.5 37-90.5-37q-38-37-38-90.5t38-90.5q37-38 90.5-38t90.5 38zM452 327q-13-12-30.5-12t-30.5 12q-12 13-12 30.5t12 30.5q13 12 30.5 12t30.5-12q12-13 12-30.5t-12-30.5v0zM482 840l-272-271q-43-44-65-99t-22-112.5 22-112.5 65-99q44-43 99-65t112.5-22 112.5 22 99 65l271 272q25 25 25 60.5t-25 60.5l-301 301q-25 25-60.5 25t-60.5-25v0zM542 780l302-302-272-271q-31-32-70-47-40-16-80.5-16t-80.5 16q-39 15-70 47-32 31-47 70-16 40-16 80.5t16 80.5q15 39 47 70l271 272z" />
<glyph unicode="&#xe939;" glyph-name="uniE939" d="M128 747q0 35 25 60t60 25h598q35 0 60-25t25-60v-598q0-35-25-60t-60-25h-598q-35 0-60 25t-25 60v214h85v-214h598v598h-598v-214h-85v214zM482 606q-13-13-13-31.5t13-31.5l52-52h-407q-17 0-29.5-12.5t-12.5-30.5 12.5-30.5 29.5-12.5h407l-52-52q-13-13-13-31.5t13-31.5 31.5-13 31.5 13l125 126q13 14 13 32t-13 32l-125 126q-7 6-15 9.5t-17 3.5q-8 0-16-3.5t-15-9.5v0z" />
<glyph unicode="&#xe93a;" glyph-name="uniE93A" d="M512 789q-53 0-100-20-46-20-81-54.5t-55-81.5-20-100q0-71 49-131l49-60q12-12 21-32.5t9-36.5 12.5-27 30.5-11h170q18 0 30.5 11t12.5 27 9 36.5 21 32.5l49 60t49 131q0 53-20 100t-55 81.5-81 54.5q-47 20-100 20v0zM512 704q70 0 120-50t50-121q0-33-27-73t-45-57q-16-16-28.5-38t-19.5-45h-100q-7 23-19.5 45t-28.5 38q-18 17-45.5 57t-27.5 73q0 71 50 121t121 50v0zM638 149v0q0-17-12.5-29.5t-29.5-12.5h-171q-18 0-30.5 12.5t-12.5 29.5v0q0 18 12.5 30.5t30.5 12.5h171q17 0 29.5-12.5t12.5-30.5v0z" />
<glyph unicode="&#xe93b;" glyph-name="uniE93B" d="M512 789q53 0 100-20 46-20 81-54.5t55-81.5 20-100q0-71-49-131l-49-60q-12-12-21-32.5t-9-36.5-12.5-27-30.5-11h-170q-18 0-30.5 11t-12.5 27-9 36.5-21 32.5l-49 60t-49 131q0 53 20 100t55 81.5 81 54.5q47 20 100 20v0zM638 149v0q0-17-12.5-29.5t-29.5-12.5h-171q-18 0-30.5 12.5t-12.5 29.5v0q0 18 12.5 30.5t30.5 12.5h171q17 0 29.5-12.5t12.5-30.5v0z" />
<glyph unicode="&#xe93c;" glyph-name="uniE93C" d="M85 661q0 36 25 61t61 25h85q35 0 60-25t25-61v-341q0-35-25-60t-60-25h-85q-36 0-61 25t-25 60v341zM171 661v-341h85v341h-85zM384 661q0 36 25 61t60 25h86q35 0 60-25t25-61v-256q0-35-25-60t-60-25h-86q-35 0-60 25t-25 60v256zM469 661v-256h86v256h-86zM683 235q0-36 25-61t60-25h85q36 0 61 25t25 61v426q0 36-25 61t-61 25h-85q-35 0-60-25t-25-61v-426zM768 235v426h85v-426h-85z" />
<glyph unicode="&#xe93d;" glyph-name="uniE93D" d="M512 64q-36 0-81 60t-83.5 143-65.5 169q-26 87-26 140t20 100q20 46 55 81t81 55q47 20 100 20t100-20q46-20 81-55t55-81q20-47 20-100t-26-140q-27-86-65.5-169t-83.5-143-81-60zM512 448q51 0 87.5 36.5t36.5 87.5q0 52-36.5 88t-87.5 36-87.5-36-36.5-88q0-51 36.5-87.5t87.5-36.5z" />
<glyph unicode="&#xe93e;" glyph-name="uniE93E" d="M128 747q0 35 25 60t60 25h299v-85h-299v-598h299v-85h-299q-35 0-60 25t-25 60v598zM696 606q-13-13-13-31.5t13-31.5l51-52h-407q-17 0-29-12.5t-12-30.5 12-30.5 29-12.5h407l-51-52q-13-13-13-31.5t13-31.5 31-13 31 13l125 126q13 14 13 32t-13 32l-125 126q-6 6-14.5 9.5t-16.5 3.5q-9 0-17-3.5t-14-9.5v0z" />
<glyph unicode="&#xe93f;" glyph-name="uniE93F" d="M513 832q44 0 83-17t68-45.5 46-67.5 17-83q0-45-17-83-17-39-46-68t-68-46-83-17-83 17-68 46-46 68q-17 38-17 83 0 44 17 83t46 67.5 68 45.5 83 17v0zM385 619q0-53 37.5-90.5t90.5-37.5 90.5 37.5 37.5 90.5-37.5 90.5-90.5 37.5-90.5-37.5-37.5-90.5zM513 491q76 0 144-28 67-27 118.5-75t83.5-113q33-65 38-139-5-31-28.5-51.5t-55.5-20.5h-599q-32 0-56 20.5t-29 51.5q6 74 38 139t83.5 113 119.5 75q67 28 143 28v0zM217 149h593q-8 55-34 101-26 47-65.5 81.5t-90.5 54.5q-50 19-107 19-56 0-107-19-50-20-89.5-54.5t-66.5-81.5q-26-46-33-101v0zM813 108v0z" />
<glyph unicode="&#xe940;" glyph-name="uniE940" d="M482 359q-11-7-21.5-9.5t-17.5 0.5-11.5 12-6.5 22q-3 19 1 40.5t14 43.5q10 21 24 38.5t30 27.5q8 5 16 8t15 3q2 0 4-0.5t4-1.5q15-6 19.5-39.5t-15.5-78.5q-10-21-24.5-38.5t-30.5-27.5v0zM870 622q-13 29-38 66-24 36-66 68t-103 54-146 22h-1q-3 0-62-7t-130-43q-33-17-68-44t-63.5-67.5-46.5-95.5-18-129q0-3 6-60.5t39-127.5q16-33 42-67 25-35 64-63t93-46q53-18 125-18 17 0 29.5 12t12.5 28q0 17-12.5 28.5t-29.5 11.5q-88 0-150.5 37t-97.5 109q-28 58-33 107l-5 49q0 93 37.5 159t111.5 104q56 29 105 35.5t53 7.5q35-1 74-7 40-7 77.5-24.5t69.5-48.5q33-32 55-82 15-35 18-73.5t-7-74.5q-20-75-64-90.5t-51-15.5v0 0q-31-1-40.5 6.5t-12.5 10.5q-18 29 0 92t42 108q8 14 3 30t-20 24q-16 8-32 3t-24-20l-1-1q-8 9-17.5 16t-20.5 12q-27 12-58 7.5t-61-23.5q-26-17-47.5-42.5t-36.5-57.5q-14-32-20-65t-2-63q5-34 22.5-59.5t44.5-37.5q10-4 21-6t22-2q19 0 38.5 6t37.5 18q9 6 17.5 13t16.5 14q1-2 2.5-4t2.5-5q13-19 41.5-37.5t83.5-17.5q4 0 27.5 3.5t53.5 18.5q29 15 62 48t51 96q13 50 9 101.5t-25 99.5v0z" />
<glyph unicode="&#xe941;" glyph-name="uniE941" d="M512 832q-53 0-90.5-37.5t-37.5-90.5v-256q0-53 37.5-90.5t90.5-37.5 90.5 37.5 37.5 90.5v256q0 53-37.5 90.5t-90.5 37.5zM341 576q0 18-12.5 30.5t-29.5 12.5q-18 0-30.5-12.5t-12.5-30.5v-128q0-48 16-90 17-43 45.5-76.5t67.5-55.5q39-23 84-30v-89q0-18 12.5-30.5t30.5-12.5 30.5 12.5 12.5 30.5v89q45 7 84 30 39 22 67.5 55.5t45.5 76.5q16 42 16 90v128q0 18-12.5 30.5t-30.5 12.5q-17 0-29.5-12.5t-12.5-30.5v-128q0-71-50-121t-121-50-121 50-50 121v128z" />
<glyph unicode="&#xe942;" glyph-name="uniE942" d="M750 448q0-18-2-34.5t-6-32.5l-77 77v118q0 18 12.5 30.5t30.5 12.5q17 0 29.5-12.5t12.5-30.5v-128zM622 704v-204l-248 248q14 37 46.5 60.5t73.5 23.5q53 0 90.5-37.5t37.5-90.5zM366 516v-68q0-53 37.5-90.5t90.5-37.5q15 0 29 3t27 9l31-31q-19-11-41-17.5t-46-6.5q-70 0-120 50t-50 121v110l42-42zM643 239l138-138q12-12 29.5-12t30.5 12q12 13 12 30.5t-12 30.5l-640 640q-13 12-30.5 12t-29.5-12q-13-13-13-30.5t13-30.5l125-125q-12-5-20-15.5t-8-24.5v-128q0-48 17-90 16-43 44.5-76.5t67.5-55.5q39-23 85-30v-89q0-18 12.5-30.5t29.5-12.5q18 0 30.5 12.5t12.5 30.5v89q29 4 56 15.5t50 27.5v0z" />
<glyph unicode="&#xe943;" glyph-name="uniE943" d="M524 777q-12-13-12-30.5t12-29.5l226-226h-579q-18 0-30.5-12.5t-12.5-30.5 12.5-30.5 30.5-12.5h579l-226-226q-12-12-12-30t12-30q13-12 30.5-12t30.5 12l298 299h1q6 6 9 14t3 16-3 16-9 14h-1l-298 299q-6 6-14 9t-16 3q-9 0-16.5-3t-14.5-9v0z" />
<glyph unicode="&#xe944;" glyph-name="uniE944" d="M886 695v-592q0-26-16-35t-38 3l-356 194 271 148q25 14 38.5 34.5t14.5 44.5-11.5 45-35.5 35q-1 1-2 1.5t-2 0.5v0.5t-1 0.5v0l-1 1-97 52 182 100q22 11 38 2t16-35v0zM720 525v0.5t-1 0.5l-0.5 0.5t-1.5 0.5l-131 72-394 226q-22 12-38 2.5t-16-34.5v-591q0-25 16-34.5t38 2.5l50 27 135 85 340 186q22 12 22.5 28.5t-19.5 28.5v0z" />
<glyph unicode="&#xe945;" glyph-name="uniE945" d="M512 875q18 0 30.5-12.5t12.5-30.5v-3q23-4 43-12t36-19q24-16 40-35.5t25-39.5q10-20 15.5-38.5t7.5-32.5q1-7 2-13t1-10v-169l122-203q6-10 6-21.5t-5-21.5q-6-10-16-16t-21-6h-598q-11 0-21 6t-16 16q-5 10-5 21.5t6 21.5l122 203v169q0 4 1 10t2 13q2 14 7.5 32.5t15.5 38.5q9 20 25 39.5t40 35.5q16 11 36 19t43 12v3q0 18 12.5 30.5t30.5 12.5v0zM384 619v-171q0-6-1.5-11.5t-4.5-10.5l-89-149h446l-89 149q-3 5-4.5 10.5t-1.5 11.5v175q0 3-0.5 6.5t-1.5 8.5q-2 10-5.5 22.5t-9.5 24.5-15 23-21 19-30.5 14-44.5 6-44.5-6-30.5-14-21-19-15-23-9.5-24.5-5.5-22.5q-1-5-1.5-8.5t-0.5-6.5v-4zM597 149h-170q0-35 25-60t60-25 60 25 25 60v0z" />
<glyph unicode="&#xe946;" glyph-name="uniE946" d="M384 789q18 0 30.5-12.5t12.5-29.5v-128h170v128q0 17 12.5 29.5t30.5 12.5 30.5-12.5 12.5-29.5v-128h128q17 0 29.5-12.5t12.5-30.5-12.5-30.5-29.5-12.5h-128v-170h128q17 0 29.5-12.5t12.5-30.5-12.5-30.5-29.5-12.5h-128v-128q0-17-12.5-29.5t-30.5-12.5-30.5 12.5-12.5 29.5v128h-170v-128q0-17-12.5-29.5t-30.5-12.5-30.5 12.5-12.5 29.5v128h-128q-17 0-29.5 12.5t-12.5 30.5 12.5 30.5 29.5 12.5h128v170h-128q-17 0-29.5 12.5t-12.5 30.5 12.5 30.5 29.5 12.5h128v128q0 17 12.5 29.5t30.5 12.5v0zM427 533v-170h170v170h-170z" />
<glyph unicode="&#xe947;" glyph-name="uniE947" d="M94 299q11-22 33-40t44-24v0q8-2 49.5-2.5t42.5 1.5q1 1 0 4.5t-3 8.5q-6 11-10 29.5t-4 35.5q0 46 26.5 80t73.5 50q16 5 21 8t5 7q0 6 9 26t18 34q12 19 28.5 33.5t37.5 24.5q51 25 106.5 18t92.5-44l18-18 19 5q8 2 16 3.5t11 1.5q7 0 7.5 7t-5.5 25q-20 57-68 92t-108 35q-22 0-40.5-4t-36.5-13q-16-8-33.5-22t-26.5-27q-12-15-16.5-20t-7.5-6q-2 0-3.5 1t-4.5 2q-24 9-51 11t-50-5q-41-13-68.5-49.5t-29.5-82.5q0-7-1-13t-1-7q-1-2-5.5-3.5l-10.5-3.5q-25-6-45-22t-30-39q-6-10-7-18t-1-30 1.5-29.5 7.5-20.5v0zM281 313q0-45 21-74.5t59-39.5v0q8-2 65-2.5t204-0.5l254 1 12 6q18 9 29 28t13 44q3 37-13 62.5t-50 37.5l-16 5-1 22q-5 60-56.5 90t-111.5 9l-17-6-19 20q-25 26-47.5 36t-59.5 10q-25 0-40-3.5t-36-13.5-38.5-33.5-27.5-52.5q-3-7-4.5-13.5t-1.5-8.5q0-8-5.5-12t-21.5-7q-31-7-53.5-23t-31.5-39q-4-10-5-18.5t-1-23.5v0z" />
<glyph unicode="&#xe948;" glyph-name="uniE948" d="M635 39q66 20 121 59 56 39 96.5 93t63.5 119q23 66 23 138 0 88-34 166-33 78-91 136t-136 91q-78 34-166 34t-166-34q-78-33-136-91t-91-136q-34-78-34-166 0-72 23-138 23-65 63.5-119t96.5-93q55-39 121-59l74 245q-53 16-87.5 61t-34.5 103q0 71 50 121t121 50 121-50 50-121q0-58-34.5-103t-87.5-61l74-245z" />
<glyph unicode="&#xe949;" glyph-name="uniE949" d="M534 718q11 13 27.5 21t35.5 8q36 0 61-25t25-61q0-25-13.5-46t-35.5-31q3-12 4.5-25t1.5-26q0-11-1-22.5t-4-22.5q41-6 77-25 36-18 64.5-45.5t47.5-63.5 26-77h-79q10-20 17.5-41.5t12.5-43.5h95q18 0 30.5 12.5t12.5 30.5q0 53-16 102t-44 90-66 73q-39 31-86 50 19 23 30 51.5t11 59.5q0 71-50 121t-121 50q-47 0-86.5-24t-61.5-62q23-3 44.5-10t40.5-18v0zM256 533q0-31 11-59.5t30-51.5q-47-19-86-50-38-32-66-73t-44-90-16-102q0-18 12.5-30.5t30.5-12.5h597q18 0 30.5 12.5t12.5 30.5q0 53-16 102-15 49-43 90t-67 73q-39 31-86 50 20 23 30.5 51.5t10.5 59.5q0 71-50 121t-120 50q-71 0-121-50t-50-121v0zM427 448q-36 0-61 25t-25 60q0 36 25 61t61 25q35 0 60-25t25-61q0-35-25-60t-60-25v0zM427 363q47 0 90-17 42-16 75.5-44.5t56.5-67.5 30-85h-505q8 46 30 85 23 39 56.5 67.5t76.5 44.5q42 17 90 17v0z" />
<glyph unicode="&#xe94a;" glyph-name="uniE94A" d="M534 718q11 13 27.5 21t35.5 8q36 0 61-25t25-61q0-25-13.5-46t-35.5-31q3-12 4.5-25t1.5-26q0-11-1-22.5t-4-22.5q41-6 77-25 36-18 64.5-45.5t47.5-63.5 26-77h-79q10-20 17.5-41.5t12.5-43.5h95q18 0 30.5 12.5t12.5 30.5q0 53-16 102t-44 90-66 73q-39 31-86 50 19 23 30 51.5t11 59.5q0 71-50 121t-121 50q-47 0-86.5-24t-61.5-62q23-3 44.5-10t40.5-18v0zM256 533q0-31 11-59.5t30-51.5q-47-19-86-50-38-32-66-73t-44-90-16-102q0-18 12.5-30.5t30.5-12.5h597q18 0 30.5 12.5t12.5 30.5q0 53-16 102-15 49-43 90t-67 73q-39 31-86 50 20 23 30.5 51.5t10.5 59.5q0 71-50 121t-120 50q-71 0-121-50t-50-121v0zM427 448q-36 0-61 25t-25 60q0 36 25 61t61 25q35 0 60-25t25-61q0-35-25-60t-60-25v0zM427 363q47 0 90-17 42-16 75.5-44.5t56.5-67.5 30-85h-505q8 46 30 85 23 39 56.5 67.5t76.5 44.5q42 17 90 17v0z" />
<glyph unicode="&#xe94b;" glyph-name="uniE94B" d="M213 363q36 0 61 25t25 60-25 60-61 25q-35 0-60-25t-25-60 25-60 60-25zM512 363q35 0 60 25t25 60-25 60-60 25-60-25-25-60 25-60 60-25zM896 448q0-35-25-60t-60-25q-36 0-61 25t-25 60 25 60 61 25q35 0 60-25t25-60z" />
<glyph unicode="&#xe94c;" glyph-name="uniE94C" d="M597 747q0-36-25-61t-60-25-60 25-25 61q0 35 25 60t60 25 60-25 25-60zM512 363q35 0 60 25t25 60-25 60-60 25-60-25-25-60 25-60 60-25zM512 64q35 0 60 25t25 60q0 36-25 61t-60 25-60-25-25-61q0-35 25-60t60-25z" />
<glyph unicode="&#xe94d;" glyph-name="uniE94D" d="M354 416q-13 0-22.5 9.5t-9.5 22.5 9.5 22.5 22.5 9.5 22.5-9.5 9.5-22.5-9.5-22.5-22.5-9.5v0zM511 511q-17 29-46 46t-64 17q-52 0-89-37t-37-89 37-89 89-37q40 0 71.5 22t46.5 57h25l31 47 32-32 31 32 32-32 32 32 31-32 32 48-32 47h-222zM512 107q-71 0-133 26-62 27-108.5 73.5t-73.5 108.5q-26 62-26 133t26 133q27 62 73.5 108.5t108.5 73.5q62 26 133 26t133-26q62-27 108.5-73.5t73.5-108.5q26-62 26-133t-26-133q-27-62-73.5-108.5t-108.5-73.5q-62-26-133-26zM512 875q-88 0-166-34-78-33-136-91t-91-136q-34-78-34-166t34-166q33-78 91-136t136-91q78-34 166-34t166 34q78 33 136 91t91 136q34 78 34 166t-34 166q-33 78-91 136t-136 91q-78 34-166 34v0z" />
<glyph unicode="&#xe94e;" glyph-name="uniE94E" d="M747 847q32 3 63.5-6.5t58.5-35.5l-60-60q-11 10-24 14.5t-29 2.5q-18-2-39-10t-45-22q-24-13-47.5-29.5t-45.5-32.5q-4-3-7-5.5t-7-4.5q-18-14-35.5-26.5t-32.5-20.5q-16-10-31.5-11t-25.5 0-35.5-1-65.5-15q-25-9-53.5-26.5t-54.5-37.5l-3-2q8-2 16-3.5t17-2.5q16-3 31-5t27-3q6-1 10.5-1.5t8.5-0.5q1-1 2.5-1h3.5l39-47-1-1v-4q0-3-0.5-6.5t-0.5-8.5q-1-9-1.5-21.5t-0.5-25.5 0.5-25.5 2.5-22.5q1-8 2-11.5t2-4.5v-1h1q1-1 4.5-2t11.5-2q10-2 22.5-2.5t25.5-0.5 25.5 0.5 21.5 1.5l20 2 47-39 3-25q1-12 3-27t5-31q1-9 2.5-17t3.5-16l2 3q20 26 37.5 54.5t26.5 53.5q13 40 15 65.5t1 35.5 0 25.5 11 31.5q8 15 20.5 32.5t26.5 35.5q2 4 4.5 7t5.5 7q16 22 32.5 45.5t29.5 47.5q14 24 22 45t10 39q2 16-2.5 29t-14.5 24l60 60q26-27 35.5-58.5t6.5-63.5q-4-31-16-60.5t-27-56.5-33-53-34-48l-6-8t-5-7q-14-18-24.5-32.5t-16.5-26.5q-1 0-1-1.5t1-4.5q2-20-1-54t-20-83q-11-35-33.5-70.5t-43.5-62.5q-10-14-19.5-25.5t-16.5-19.5q-4-4-7-7.5t-5-5.5l-2-2t-1-2l-2-1q-6-7-13.5-10.5t-16.5-3.5-17 3-14 9q-7 7-11.5 15t-7.5 15l-6 16t-5 16q-5 17-8.5 35t-6.5 36q-2 13-4 25t-3 23q-8-1-16.5-1h-17.5q-15 0-31 0.5t-32 3.5q-13 2-31 8t-31 20q-14 13-20 31t-8 31q-3 16-3.5 32t-0.5 31v17.5t1 16.5q-11 1-23 3t-25 4q-18 3-36 6.5t-35 8.5q-8 2-16 5l-16 6q-7 3-15 7.5t-15 11.5q-6 6-9 14t-3 17 3.5 16.5 10.5 13.5v0 1l1 1q1 0 2 1l2 2q2 2 5.5 5t7.5 7q8 7 19.5 16.5t25.5 19.5q27 21 62.5 43.5t70.5 33.5q49 17 83 20t54 1q3-1 4.5-1t1.5 1q12 7 26.5 17t32.5 24q3 2 7 5l8 6q22 16 48 34t53 33 56.5 27 60.5 16v0zM658 594q12-13 30-13t30 13q13 12 13 30t-13 30q-12 13-30 13t-30-13q-13-12-13-30t13-30v0z" />
<glyph unicode="&#xe94f;" glyph-name="uniE94F" d="M341 747q42 0 75-24.5t46-61.5h391q18 0 30.5-12.5t12.5-29.5q0-18-12.5-30.5t-30.5-12.5h-387t-4 1q-13-38-46-62t-75-24-75 24-46 62q-1-1-3-1h-46q-18 0-30.5 12.5t-12.5 30.5q0 17 12.5 29.5t30.5 12.5h49q13 37 46 61.5t75 24.5v0zM804 319q-13 38-46 62t-75 24-75-24-46-62q-2 1-4 1h-387q-18 0-30.5-12.5t-12.5-30.5q0-17 12.5-29.5t30.5-12.5h391q13-37 46-61.5t75-24.5 75 24.5 46 61.5h49q18 0 30.5 12.5t12.5 29.5q0 18-12.5 30.5t-30.5 12.5h-46t-3-1zM725 277q0-17-12.5-29.5t-29.5-12.5q-18 0-30.5 12.5t-12.5 29.5q0 18 12.5 30.5t30.5 12.5q17 0 29.5-12.5t12.5-30.5zM341 576q18 0 30.5 12.5t12.5 30.5q0 17-12.5 29.5t-30.5 12.5q-17 0-29.5-12.5t-12.5-29.5q0-18 12.5-30.5t29.5-12.5v0z" />
<glyph unicode="&#xe950;" glyph-name="uniE950" d="M512 832q-71 0-121-50t-50-121v-85h-42q-36 0-61-25t-25-60v-342q0-35 25-60t61-25h426q36 0 61 25t25 60v342q0 35-25 60t-61 25h-42v85q0 71-50 121t-121 50v0zM597 491h128v-342h-426v342h298zM597 576h-170v85q0 36 25 61t60 25 60-25 25-61v-85zM597 320q0-35-25-60t-60-25-60 25-25 60 25 60 60 25 60-25 25-60z" />
<glyph unicode="&#xe951;" glyph-name="uniE951" d="M469 152v40q0 18-12.5 30.5t-29.5 12.5q-18 0-30.5 12.5t-12.5 29.5v43l-168 168-2-20t-1-20q0-56 20-107 20-50 54-89.5t81-65.5 101-34v0zM640 718q-3-33-27.5-55.5t-57.5-22.5h-86v-64q0-18-12.5-30.5t-29.5-12.5h-86v-85h214q35 0 60-25t25-60v-86h43q16 0 28.5-11t13.5-27q40 40 63 94t23 115q0 45-13 86-12 41-34.5 76t-54.5 62q-31 28-69 46v0zM896 448q0-80-30-149-30-70-82.5-122.5t-122.5-82.5q-69-30-149-30t-149 30q-70 30-122.5 82.5t-82.5 122.5q-30 69-30 149t30 149q30 70 82.5 122.5t122.5 82.5q69 30 149 30t149-30q70-30 122.5-82.5t82.5-122.5q30-69 30-149z" />
<glyph unicode="&#xe952;" glyph-name="uniE952" d="M274 337q-16-9-20.5-26t4.5-32q22-40 53-72 32-32 70-54t81-34q44-12 90-12 49 0 95 14 47 13 86.5 38.5t71.5 61.5 53 81l7.5 20t9.5 29q13 44 16.5 89t-6.5 89q-6 29-19 56t-32 51q-30 36-62 65-33 28-68 48t-73 30-79 10q-47 0-91-12-43-12-81.5-35t-69.5-55q-32-32-54-72v46q0 18-12.5 30.5t-30.5 12.5q-17 0-29.5-12.5t-12.5-30.5v-166q0-19 13.5-33t33.5-14h164q18 0 30.5 12.5t12.5 30.5q0 17-12.5 29.5t-30.5 12.5h-69q2 7 4.5 13t5.5 12q31 66 93 106t136 40q60 0 114-31.5t102-90.5q13-16 21-33.5t13-37.5q7-32 4-67t-13-70q-4-13-7-22t-6-14q-31-66-92.5-106t-135.5-40q-69 0-128 34.5t-92 94.5q-9 15-26 20t-32-4v0z" />
<glyph unicode="&#xe953;" glyph-name="uniE953" d="M171 491h682q18 0 30.5-12.5t12.5-30.5-12.5-30.5-30.5-12.5h-682q-18 0-30.5 12.5t-12.5 30.5 12.5 30.5 30.5 12.5v0z" />
<glyph unicode="&#xe954;" glyph-name="uniE954" d="M513 832q-44 0-83-17t-68-45.5-46-67.5-17-83q0-47 18.5-87t50.5-70q-50-20-92-53-42-32-73-74.5t-51-92.5q-19-51-23-106 5-31 29-51.5t56-20.5h255q18 0 30.5 12.5t12.5 30.5q0 17-12.5 29.5t-30.5 12.5h-252q7 55 33 101 27 47 66.5 81.5t89.5 54.5q51 19 107 19 57 0 107-19.5t90-53.5q6-6 14-9t16-3h13q26 0 37 21.5t-8 39.5q-26 26-57.5 46.5t-65.5 34.5q31 30 49.5 70t18.5 87q0 44-17 83t-46 67.5-68 45.5-83 17v0zM641 619q0-53-37.5-90.5t-90.5-37.5-90.5 37.5-37.5 90.5 37.5 90.5 90.5 37.5 90.5-37.5 37.5-90.5zM939 192q0 18-12.5 30.5t-30.5 12.5h-256q-18 0-30.5-12.5t-12.5-30.5 12.5-30.5 30.5-12.5h256q18 0 30.5 12.5t12.5 30.5z" />
<glyph unicode="&#xe955;" glyph-name="uniE955" d="M436 695q12 13 12 30.5t-12 30.5q-13 12-30.5 12t-30.5-12l-192-192q-3-4-5.5-7.5t-3.5-7.5q-2-4-2.5-7.5t-0.5-8.5v0 0q0-4 0.5-7.5t1.5-6.5q2-5 4.5-8.5t5.5-7.5l192-192q13-12 30.5-12t30.5 12q12 13 12 30.5t-12 30.5l-120 119h111q49 0 79-1.5t53-7.5q17-5 33.5-14.5t37.5-28.5l95-247q0-18 12.5-30.5t30.5-12.5 30.5 12.5 12.5 30.5v0 5.5t-1 3.5v9.5t-1 12.5q-1 14-3.5 33t-6.5 40q-8 42-27.5 92.5t-58.5 89.5q-34 34-64.5 55t-66.5 31q-32 9-69 10.5t-81 1.5h-116l120 119zM630 439v0 0 0zM630 439q6-5 11.5-10t10.5-11q26-25 41-62.5t22-75.5q4-19 6-35t3-28q1-6 1-11v-14l-95 247z" />
<glyph unicode="&#xe956;" glyph-name="uniE956" d="M811 686v-67q0-18 12.5-30.5t29.5-12.5q18 0 30.5 12.5t12.5 30.5v170q0 18-12.5 30.5t-30.5 12.5h-170q-18 0-30.5-12.5t-12.5-30.5q0-17 12.5-29.5t30.5-12.5h67l-226-226q-12-13-12-30.5t12-30.5q13-12 30.5-12t30.5 12l226 226zM555 789h-342q-35 0-60-25t-25-60v-341q0-36 25-61t60-25h598q35 0 60 25t25 61v128h-85v-128h-598v341h342v85zM427 235h170v-97q19-11 31-30.5t12-43.5h-256q0 24 12 43.5t31 30.5v97z" />
<glyph unicode="&#xe957;" glyph-name="uniE957" d="M448 192q54 0 103 17t90 47l168-171q12-12 29.5-12t30.5 12q12 12 12.5 30t-12.5 30l-168 171q32 41 49.5 91t17.5 105q0 66-25 125-25 58-68.5 101.5t-101.5 68.5q-59 25-125 25t-125-25q-58-25-101.5-68.5t-68.5-101.5q-25-59-25-125t25-125q25-58 68.5-101.5t101.5-68.5q59-25 125-25zM683 512q0-49-19-91-18-43-50-75t-75-50q-42-19-91-19t-91 19q-43 18-75 50t-50 75q-19 42-19 91t19 91q18 43 50 75t75 50q42 19 91 19t91-19q43-18 75-50t50-75q19-42 19-91z" />
<glyph unicode="&#xe958;" glyph-name="uniE958" d="M512 21q-88 0-166 34-78 33-136 91t-91 136q-34 78-34 166t34 166q33 78 91 136t136 91q78 34 166 34t166-34q78-33 136-91t91-136q34-78 34-166t-34-166q-33-78-91-136t-136-91q-78-34-166-34v0zM512 107q71 0 133 26 62 27 108.5 73.5t73.5 108.5q26 62 26 133t-26 133q-27 62-73.5 108.5t-108.5 73.5q-62 26-133 26t-133-26q-62-27-108.5-73.5t-73.5-108.5q-26-62-26-133t26-133q27-62 73.5-108.5t108.5-73.5q62-26 133-26zM354 478q12 13 30 13t30-13l55-55 141 141q12 12 30 12t30-12q13-13 13-30.5t-13-30.5l-170-171q-13-12-30.5-12t-30.5 12l-85 86q-13 12-13 30t13 30v0z" />
<glyph unicode="&#xe959;" glyph-name="uniE959" d="M298 129v302l-195 206q-29 31-12.5 70.5t58.5 39.5h722q44 0 62-42t-13-75l-512-546q-30-32-70-15.5t-40 60.5v0zM383 421v-238l447 477h-631l150-159 145 71q16 8 32.5 1.5t23.5-22.5q8-16 2-33.5t-22-24.5l-147-72z" />
<glyph unicode="&#xe95a;" glyph-name="uniE95A" d="M896 704q0-53-37.5-90.5t-90.5-37.5q-28 0-52 11t-41 29l-291-167v-1q0-4-0.5-8.5t-0.5-8.5l282-163q18 24 44.5 38t58.5 14q53 0 90.5-37.5t37.5-90.5-37.5-90.5-90.5-37.5q-51 0-88 35t-40 85l-296 171q-17-16-39.5-25.5t-48.5-9.5q-53 0-90.5 37.5t-37.5 90.5 37.5 90.5 90.5 37.5q30 0 55.5-12.5t42.5-33.5l286 165v9q0 53 37.5 90.5t90.5 37.5 90.5-37.5 37.5-90.5v0zM213 448q0-18 12.5-30.5t30.5-12.5 30.5 12.5 12.5 30.5-12.5 30.5-30.5 12.5-30.5-12.5-12.5-30.5zM768 661q18 0 30.5 12.5t12.5 30.5-12.5 30.5-30.5 12.5-30.5-12.5-12.5-30.5 12.5-30.5 30.5-12.5zM725 192q0-18 12.5-30.5t30.5-12.5 30.5 12.5 12.5 30.5-12.5 30.5-30.5 12.5-30.5-12.5-12.5-30.5z" />
<glyph unicode="&#xe95b;" glyph-name="uniE95B" d="M341 875l-42-214-214-42 214-43 42-213 43 213 213 43-213 42-43 214zM725 491l43 128 43-128 128-43-128-43-43-128-43 128-128 43 128 43zM469 235l43 128 43-128 128-43-128-43-43-128-43 128-128 43 128 43z" />
<glyph unicode="&#xe95c;" glyph-name="uniE95C" d="M320 64l192 101 192-101q10-5 20.5-6.5t21.5 0.5q27 4 43 26.5t11 49.5l-37 214 156 151q8 8 12.5 17.5t6.5 20.5q4 27-12.5 49t-43.5 26l-215 31-96 195q-5 10-12.5 17.5t-17.5 12.5q-24 12-50 3t-38-33l-96-195-215-31q-11-2-20.5-7t-17.5-12q-19-20-18.5-47.5t19.5-46.5l156-151-37-214q-2-11 0-21.5t7-20.5q12-24 38.5-32.5t50.5 4.5v0zM825 531l-156-152 37-216-194 102-194-102 37 216-156 152 216 32 97 196 97-196 216-32z" />
<glyph unicode="&#xe95d;" glyph-name="uniE95D" d="M512 165l-192-101q-24-13-50.5-4.5t-38.5 32.5q-5 10-7 20.5t0 21.5l37 214-156 151q-19 19-19.5 46.5t18.5 47.5q8 7 17.5 12t20.5 7l215 31 96 195q12 24 38 33t50-3q10-5 17.5-12.5t12.5-17.5l96-195 215-31q27-4 43.5-26t12.5-49q-2-11-6.5-20.5t-12.5-17.5l-156-151 37-214q5-27-11-49.5t-43-26.5q-11-2-21.5-0.5t-20.5 6.5l-192 101z" />
<glyph unicode="&#xe95e;" glyph-name="uniE95E" d="M512 21q8 0 16 3.5t14 9.5l384 384q6 6 9.5 14t3.5 16q0 89-34 166-34 78-91.5 136t-135.5 91q-78 34-166 34t-166-34q-78-33-136-91t-91-136q-34-78-34-166t34-166q33-78 91-135.5t136-91.5q77-34 166-34v0zM171 448q0 71 26 133 27 62 73.5 108.5t108.5 73.5q62 26 133 26 64 0 121-22t102-60.5 74-90.5q30-53 40-114-14 2-30.5 3.5t-34.5 1.5q-53 0-117.5-18.5t-120.5-74.5-74.5-120.5-18.5-117.5q0-18 1.5-34.5t3.5-30.5q-61 10-114 40-52 29-90.5 74t-60.5 102-22 121v0zM606 354q40 40 87.5 53.5t90.5 13.5h12t12-1l-268-268q-1 6-1 12v12q0 43 13.5 90.5t53.5 87.5v0z" />
<glyph unicode="&#xe95f;" glyph-name="uniE95F" d="M512 192q-73 0-135 30-62 29-108 70t-72 85q-26 43-26 71 0 32 26 76t72 84 108 68 135 28q70 0 132-28t108.5-67.5 73.5-84.5q27-44 27-76 0-28-26-71-26-44-72-85t-108-70q-62-30-135-30v0zM512 789q-88 0-166-34t-136-85.5-91-111.5q-34-59-34-110 0-49 34-109 35-59 93-111t136-87q77-34 164-34t164 34q78 35 136 87t93 111q34 60 34 109 0 51-34 110-33 60-91 111.5t-136 85.5-166 34v0zM511 363q-35 0-60 25t-25 61q0 35 25 60t60 25 60-25 25-60q0-36-25-61t-60-25v0zM511 619q-71 0-121-50t-50-120q0-71 50-121t121-50 121 50 50 121q0 70-50 120t-121 50v0z" />
<glyph unicode="&#xe960;" glyph-name="uniE960" d="M292 704q-57-50-89-121t-32-151q0-52 14-100 13-49 38.5-90.5t61.5-75.5q36-33 81-55 16-8 32.5-2t23.5 23q8 17 2 34t-22 25q-66 33-106 98t-40 143q0 58 22.5 110t62.5 89v-55q0-18 12.5-30.5t30.5-12.5 30.5 12.5 12.5 30.5v166q0 20-14 33.5t-33 13.5h-167q-17 0-29.5-12.5t-12.5-29.5q0-18 12.5-30.5t29.5-12.5h79zM597 320v-166q0-20 14-33.5t33-13.5h167q17 0 29.5 12.5t12.5 29.5q0 18-12.5 30.5t-29.5 12.5h-79q57 50 89 121t32 151q0 52-14 100-13 49-38.5 90.5t-61.5 75.5q-36 33-81 55-4 2-8.5 3t-9.5 1q-12 0-22.5-6.5t-16.5-18.5q-7-17-1-34t22-25q66-33 106-98t40-143q0-58-22.5-110t-62.5-89v55q0 18-12.5 30.5t-30.5 12.5-30.5-12.5-12.5-30.5v0z" />
<glyph unicode="&#xe961;" glyph-name="uniE961" d="M161 585q-11-60-6.5-117t10.5-88q-21-39-29-103t-8-213l14 43t33 68q20 24 37 32t44 6q-24 56-19 99 6 43 28.5 72.5t55.5 44.5 63 15q42 0 75.5-19t56.5-66q17 43 52.5 64.5t78.5 21.5q30 0 63-15 34-15 57.5-44.5t30.5-72.5q7-44-18-100 24 6 45-8.5t37-37.5q15-22 23.5-58t10.5-43v-2l-1 44q0 44-3 99.5t-8 105.5q-6 51-15 63 6 30 11.5 88.5t-6.5 120.5q-20 100-51.5 172.5t-48.5 74.5q-8 1-30-15-23-16-52-47.5t-60-78.5q-32-47-59-109-13 1-27 2t-28 1q-15 0-29-1t-27-2q-27 62-58 109-32 47-61 78.5t-52 47.5q-22 16-30 15-16-2-48-74.5t-52-172.5v0zM768 804q17 3 40-58t43-154q19-89 8.5-129.5t-12.5-43.5v0q-1 5-14.5 42.5t-59.5 68.5q-23 16-39.5 21.5t-28.5 7.5q-14 3-22 7.5t-14 22.5q-5 17 5 51 10 35 26.5 70.5t35.5 62.5q19 28 32 31v0zM267 804q13-3 32-31 19-27 35.5-62.5t26.5-70.5q11-34 5-51t-14-22-22-8q-11-2-27.5-7.5t-39.5-21.5q-50-33-64.5-83.5l-14.5-50.5-10 51.5t10 144.5 43 154 40 58v0zM522 94q48 0 59 17t11 33q0 15-12 25.5t-58 10.5q-44 0-57-10.5t-13-25.5q0-16 11.5-33t58.5-17zM421 308q0 25-12 43t-30 18q-17 0-29-18t-12-43 12-32.5 29-7.5q18 0 30 7.5t12 32.5zM651 369q18 0 30-18t12-43-12-33-30-8q-17 0-29 8t-12 33 12 43 29 18z" />
<glyph unicode="&#xe962;" glyph-name="uniE962" d="M299 832q0 18 12.5 30.5t29.5 12.5h43q18 0 30.5-12.5t12.5-30.5-12.5-30.5-30.5-12.5h-43q-17 0-29.5 12.5t-12.5 30.5v0zM128 661q-18 0-30.5-12.5t-12.5-29.5v-43q0-18 12.5-30.5t30.5-12.5 30.5 12.5 12.5 30.5v43q0 17-12.5 29.5t-30.5 12.5zM85 448q0 18 12.5 30.5t30.5 12.5 30.5-12.5 12.5-30.5v-43q0-17-12.5-29.5t-30.5-12.5-30.5 12.5-12.5 29.5v43zM85 277q0 18 12.5 30.5t30.5 12.5 30.5-12.5 12.5-30.5v-128q-36 0-61 25t-25 61v42zM512 875q-18 0-30.5-12.5t-12.5-30.5 12.5-30.5 30.5-12.5h43q17 0 29.5 12.5t12.5 30.5-12.5 30.5-29.5 12.5h-43zM640 832q0 18 12.5 30.5t30.5 12.5h42q36 0 61-25t25-61h-128q-18 0-30.5 12.5t-12.5 30.5v0zM171 875q-36 0-61-25t-25-61v-42q0-18 12.5-30.5t30.5-12.5 30.5 12.5 12.5 30.5v42h42q18 0 30.5 12.5t12.5 30.5-12.5 30.5-30.5 12.5h-42zM299 747h512q35 0 60-25t25-61v-512q0-35-25-60t-60-25h-512q-36 0-61 25t-25 60v512q0 36 25 61t61 25v0zM341 661q-17 0-29.5-12.5t-12.5-29.5v-384q0-18 12.5-30.5t29.5-12.5h128q18 0 30.5 12.5t12.5 30.5v384q0 17-12.5 29.5t-30.5 12.5h-128zM597 619v-214q0-17 12.5-29.5t30.5-12.5h128q18 0 30.5 12.5t12.5 29.5v214q0 17-12.5 29.5t-30.5 12.5h-128q-18 0-30.5-12.5t-12.5-29.5z" />
<glyph unicode="&#xe963;" glyph-name="uniE963" d="M128 704v43q0 35 25 60t60 25h43q18 0 30.5-12.5t12.5-30.5q0-17-12.5-29.5t-30.5-12.5h-43v-43q0-18-12.5-30.5t-29.5-12.5q-18 0-30.5 12.5t-12.5 30.5v0zM256 619v-427q0-35 25-60t60-25h470q35 0 60 25t25 60v427q0 35-25 60t-60 25h-470q-35 0-60-25t-25-60v0zM341 619h470v-256h-470v256zM768 192q-18 0-30.5 12.5t-12.5 30.5q0 17 12.5 29.5t30.5 12.5 30.5-12.5 12.5-29.5q0-18-12.5-30.5t-30.5-12.5zM341 235q0 17 12.5 29.5t30.5 12.5h128q18 0 30.5-12.5t12.5-29.5q0-18-12.5-30.5t-30.5-12.5h-128q-18 0-30.5 12.5t-12.5 30.5v0zM171 363q-18 0-30.5-12.5t-12.5-30.5v-43q0-35 25-60t60-25v128q0 18-12.5 30.5t-29.5 12.5v0zM128 576q0 18 12.5 30.5t30.5 12.5q17 0 29.5-12.5t12.5-30.5v-128q0-18-12.5-30.5t-29.5-12.5q-18 0-30.5 12.5t-12.5 30.5v128zM341 789q0 18 12.5 30.5t30.5 12.5h171q17 0 29.5-12.5t12.5-30.5q0-17-12.5-29.5t-29.5-12.5h-171q-18 0-30.5 12.5t-12.5 29.5v0zM683 832q-18 0-30.5-12.5t-12.5-30.5q0-17 12.5-29.5t30.5-12.5h128q0 35-25 60t-61 25h-42z" />
<glyph unicode="&#xe964;" glyph-name="uniE964" d="M213 832q-35 0-60-25t-25-60v-86q0-17 12.5-29.5t30.5-12.5q17 0 29.5 12.5t12.5 29.5v86h86q17 0 29.5 12.5t12.5 29.5q0 18-12.5 30.5t-29.5 12.5h-86zM896 747q0 35-25 60t-60 25h-86q-17 0-29.5-12.5t-12.5-30.5q0-17 12.5-29.5t29.5-12.5h86v-86q0-17 12.5-29.5t29.5-12.5q18 0 30.5 12.5t12.5 29.5v86zM213 64q-35 0-60 25t-25 60v86q0 17 12.5 29.5t30.5 12.5q17 0 29.5-12.5t12.5-29.5v-86h86q17 0 29.5-12.5t12.5-29.5q0-18-12.5-30.5t-29.5-12.5h-86zM171 533q-18 0-30.5-12.5t-12.5-29.5v-86q0-17 12.5-29.5t30.5-12.5q17 0 29.5 12.5t12.5 29.5v86q0 17-12.5 29.5t-29.5 12.5zM469 747q-17 0-29.5 12.5t-12.5 29.5q0 18 12.5 30.5t29.5 12.5h86q17 0 29.5-12.5t12.5-30.5q0-17-12.5-29.5t-29.5-12.5h-86zM597 533q0 18 12.5 30.5t30.5 12.5 30.5-12.5 12.5-30.5v-170h170q18 0 30.5-12.5t12.5-30.5-12.5-30.5-30.5-12.5h-170v-170q0-18-12.5-30.5t-30.5-12.5-30.5 12.5-12.5 30.5v170h-170q-18 0-30.5 12.5t-12.5 30.5 12.5 30.5 30.5 12.5h170v170z" />
<glyph unicode="&#xe965;" glyph-name="uniE965" d="M256 747h-43v-128h86v42h170v-469h-42v-85h170v85h-42v469h170v-42h86v128h-555z" />
<glyph unicode="&#xe966;" glyph-name="uniE966" d="M384 789q0 18 12.5 30.5t30.5 12.5h170q18 0 30.5-12.5t12.5-30.5h171q17 0 29.5-12.5t12.5-29.5v-43h-682v43q0 17 12.5 29.5t29.5 12.5h171zM384 491q0 17 12.5 29.5t30.5 12.5q17 0 29.5-12.5t12.5-29.5v-214q0-17-12.5-29.5t-29.5-12.5q-18 0-30.5 12.5t-12.5 29.5v214zM555 491q0 17 12.5 29.5t29.5 12.5q18 0 30.5-12.5t12.5-29.5v-214q0-17-12.5-29.5t-30.5-12.5q-17 0-29.5 12.5t-12.5 29.5v214zM250 185q3-33 27.5-55.5t57.5-22.5h354q33 0 57.5 22.5t27.5 55.5l37 476h-598l37-476zM335 192l-30 384h414l-30-384h-354z" />
<glyph unicode="&#xe967;" glyph-name="uniE967" d="M848 576q7 7 16.5 11t20.5 4q23 0 38.5-15t15.5-37-15.5-37-38.5-15q-5 0-10.5 1t-10.5 3q-43-100-64-160.5t-21-82.5v-99h-533l-1 99q0 22-21.5 82.5t-64.5 160.5q-5-2-10-3t-10-1q-23 0-38.5 15t-15.5 37 15.5 37 38.5 15q22 0 37.5-15t15.5-37q0-8-2.5-15.5t-6.5-13.5q80-50 131-75.5t74-25.5q21 0 49 59t62 177q-18 4-29 18t-11 32q0 21 15.5 36.5t37.5 15.5 37.5-15.5 15.5-36.5q0-17-10-30.5t-25-18.5q14-38 29-73t34-75q10-20 19-36.5t19-28.5q9-12 17-18t15-6q22 0 66.5 24.5t113.5 74.5q-6 7-8.5 14.5t-2.5 16.5q0 11 4 20t12 17v0zM512 227q22 0 37.5 15.5t15.5 37.5q0 21-15.5 36t-37.5 15q-23 0-38-15t-15-36q0-22 15-37.5t38-15.5zM364 227q17 0 29 12t12 26q0 17-12 28.5t-29 11.5q-15 0-27-11.5t-12-28.5q0-14 12-26t27-12zM660 227q15 0 27 12t12 26q0 17-11.5 28.5t-27.5 11.5q-17 0-29-11.5t-12-28.5q0-14 12.5-26t28.5-12z" />
<glyph unicode="&#xe968;" glyph-name="uniE968" d="M370 123q108 0 192 40 83 41 140 105.5t87 144.5q29 80 29 158v10t-1 10q23 17 43 37.5t36 44.5q-21-10-44-16t-46-9q24 15 42 37.5t27 49.5q-23-13-48-23t-52-15q-22 23-51.5 36.5t-63.5 13.5q-66 0-112-46.5t-46-111.5q0-9 1-18t3-18q-49 3-95 15-46 13-87 34.5t-77 50.5-66 65q-10-18-15.5-38t-5.5-41q0-41 19.5-75.5t50.5-56.5q-19 1-37 6t-34 14v-2q0-57 36-100t90-54q-10-3-20.5-4.5t-20.5-1.5q-8 0-15.5 1t-14.5 2q15-47 55.5-77.5t91.5-31.5q-40-32-90-50t-105-18q-10 0-19.5 0.5t-18.5 1.5q52-33 113.5-51.5t128.5-18.5v0z" />
<glyph unicode="&#xe969;" glyph-name="uniE969" d="M542 649l302-302q12-12 12-30t-12-30q-13-13-30.5-13t-29.5 13l-272 271-272-271q-12-13-29.5-13t-30.5 13q-12 12-12 30t12 30l302 302q12 12 30 12t30-12v0z" />
<glyph unicode="&#xe96a;" glyph-name="uniE96A" d="M306 729q8 0 16-1t17-2q36 51 93.5 78t121.5 28q45-1 86-15 40-15 73-40.5t57-61.5q23-36 35-79 58-13 96-61.5t38-112.5q0-73-52-129t-121-56h-169v85h169q34 0 61 31t27 69q0 39-24 65.5t-60 26.5h-12v1q-19 0-24 11l-5 11-1 14q-4 32-19 60.5t-39 50.5q-24 21-54 33t-62 12q-49-1-92-24t-67-66l-6-12-9-9t-28-1l-8 2q-9 4-19 5.5t-22 1.5h-1q-52 0-92-37.5t-40-94.5q0-59 40-104.5t93-45.5h123v-85h-123q-44 0-83 20-39 19-69 51.5t-48 74.5-18 89q0 46 18 86 17 39 47.5 68.5t70.5 45.5q40 17 85 17v0zM478 562l-82-82q-6-6-9-14t-3-16q0-9 3-16.5t9-13.5q3-3 6.5-5.5t7.5-3.5q4-2 8-3t8-1 8 1 8 3q4 1 7.5 3.5t6.5 5.5l13 13v-326q0-18 12.5-30.5t30.5-12.5 30.5 12.5 12.5 30.5v324l13-13q3-3 6.5-5.5t7.5-3.5q4-2 8-3t8-1 8 1 8 3q4 1 7.5 3.5t6.5 5.5q6 6 9 13.5t3 16.5q0 8-3 16t-9 14l-84 84q-3 3-5.5 5t-6.5 4-8.5 3.5-9.5 1.5h-3q-5 0-9.5-1t-8.5-3q-4-1-8-3.5t-7-6.5v0z" />
<glyph unicode="&#xe96b;" glyph-name="uniE96B" d="M207 661q-33 0-56-20.5t-23-50.5v-284q0-30 23-50.5t56-20.5h396q33 0 56.5 20.5t23.5 50.5v13l160-40q10-3 19.5-1t17.5 8q7 6 11.5 15t4.5 19v256q0 10-4.5 19t-11.5 15q-8 6-17.5 8t-19.5-1l-160-40v13q0 30-23.5 50.5t-56.5 20.5h-396zM213 320v256h384v-256h-384zM683 491h4.5t5.5 1l118 29v-146l-118 29q-3 1-5.5 1h-4.5v86z" />
<glyph unicode="&#xe96c;" glyph-name="uniE96C" d="M359 661v0l-137 137q-12 13-30 13t-30-13q-13-12-13-30t13-30l76-77h-31q-33 0-56-20.5t-23-50.5v-284q0-30 23-50.5t56-20.5h396q14 0 26 3.5t22 10.5l151-151q12-13 30-13t30 13q13 12 13 30t-13 30l-503 503zM213 576h111l256-256h-367v256zM597 544v32h-32l-85 85h123q33 0 56.5-20.5t23.5-50.5v-13l160 40q10 3 19.5 1t17.5-8q7-6 11.5-15t4.5-19v-256q0-10-4.5-19t-11.5-15q-4-3-8.5-5t-8.5-3l-111 111 59-14v146l-118-29q-3-1-5.5-1h-4.5v-33l-86 86z" />
<glyph unicode="&#xe96d;" glyph-name="uniE96D" d="M171 448v-299q-1-8 2.5-16t9.5-14q5-6 13-9t16-3h44v384h-44q-8 0-16-3.5t-13-9.5q-6-6-9.5-14t-2.5-16v0zM823 489q-19 22-45 33.5t-54 11.5h-113q2 6 3 11.5t2 11.5q16 94 5.5 135.5t-27.5 60.5q-14 17-35 26.5t-44 9.5q-49-1-85-34.5t-41-82.5q-13-59-19-76t-23-40l-32-47q-8-11-12-23t-4-25v-268q0-17 6.5-33t18.5-28q13-12 28.5-18t33.5-6h309q47-1 83.5 29.5t44.5 77.5l29 170q4 28-3.5 55t-25.5 49v0zM737 229q-2-16-14-26t-28-10h-309v268l32 46q23 33 37.5 71t18.5 79q1 17 9.5 33.5t31.5 13.5 22.5-48.5-6.5-83.5q-7-32-16.5-62.5t-20.5-60.5h230q9 0 17.5-4t15.5-11q6-7 8.5-16t0.5-19l-29-170z" />
<glyph unicode="&#xe96e;" glyph-name="uniE96E" d="M587 681q-24 46-75 46t-75-46l-243-457q-22-43 3-84.5t73-41.5h484q48 0 73 41.5t3 84.5l-243 457zM512 320q-18 0-30.5 12.5t-12.5 30.5v213q0 18 12.5 30.5t30.5 12.5 30.5-12.5 12.5-30.5v-213q0-18-12.5-30.5t-30.5-12.5zM469 235q0 17 12.5 29.5t30.5 12.5 30.5-12.5 12.5-29.5q0-18-12.5-30.5t-30.5-12.5-30.5 12.5-12.5 30.5v0z" />
</font>
</defs>
</svg>
